{
.appVersion = "3227";
.formatVersion = 3;
DisplayStrings = (
"/_khryz   ğœ¼€|ğœ¼Œ    ğœ¼˜|
ğœ¼|ğœ¼
ğœ¼‚ğœ¼|
ğœ¼ƒ|ğœ¼
ğœ¼„|ğœ¼
ğœ¼…|ğœ¼‘
ğœ¼†|ğœ¼’
ğœ¼‡|ğœ¼“
ğœ¼ˆ|ğœ¼”
ğœ¼‰|ğœ¼•
ğœ¼Š|ğœ¼–
ğœ¼‹|ğœ¼—

ğœ¼˜
ğœ¼™
ğœ¼š
ğœ¼›
ğœ¼œ
ğœ¼
ğœ¼
ğœ¼Ÿ
ğœ¼ 
ğœ¼¡
ğœ¼¢
ğœ¼£

ğœ¼¥
ğœ¼¦
ğœ¼§
ğœ¼¨
ğœ¼©
ğœ¼ª
ğœ¼«
ğœ¼¬
ğœ¼­",
"ğœ¼ ",
"ğœ¼Œğœ¼€     ğœ¼    ğœ¼ƒ  ğœ¼„  ğœ¼…  ğœ¼†  ğœ¼‡  ğœ¼ˆ  ğœ¼‰  ğœ¼Š  ğœ¼‹  ğœ¼Œ  ğœ¼  ğœ¼  ğœ¼  ğœ¼  ğœ¼‘  ğœ¼’  ğœ¼“  ğœ¼”  ğœ¼•  ğœ¼–  ğœ¼—    ğœ¼˜   ğœ¼™   ğœ¼š  ğœ¼›  ğœ¼œ  ğœ¼  ğœ¼  ğœ¼Ÿ  ğœ¼   ğœ¼¡  ğœ¼¢  ğœ¼£    ğœ¼¥  ğœ¼¦ ğœ¼§  ğœ¼¨  ğœ¼©  ğœ¼ª  ğœ¼«  ğœ¼¬  ğœ¼­  ",
"ğœ¼‚/_curve ğœ¼µğœ¼²ğœ¼³ğœ¼´ğœ¼µğœ¼¶ğœ¼·ğœ¼¸ğœ¼¹ğœ¼ºğœ¼»ğœ¼¼ğœ¼½ğœ¼¾ğœ¼¿ ğœ½€ğœ½ğœ½‚ğœ½ƒğœ½„ ğœ½…ğœ½† /_vert.stem/_haczek ğœ½ğœ½‘ğœ½’ğœ½“/_cross ğœ½”ğœ½•ğœ½–ğœ½—ğœ½˜ğœ½™ğœ½šğœ¼¿ğœ½›ğœ½œğœ½/_steep.rombus ğœ½ğœ½Ÿğœ½ ğœ½¡ğœ½¢/_shorthaczek ğœ½£ğœ½¤ğœ½¥ğœ½¦ğœ½§ğœ½¨ğœ½©ğœ½ªğœ½«ğœ½¬ğœ½­ğœ½®ğœ½¯/_haczek ğœ½°ğœ½±ğœ½²ğœ½³ğœ½´ğœ½µğœ½¶ğœ½·ğœ½¸ğœ½¹ğœ½ºğœ½»ğœ½¼
ğœ½½ğœ½¾ğœ½¿ğœ¾€ğœ¾ğœ¾‚ğœ¾ƒğœ¾†ğœ¾‡ğœ¾ˆğœ¾‰ğœ¾Šğœ¾‹ğœ¾Œğœ¾ğœ¾ğœ¾ğœ¾ğœ¾‘ğœ¾’ğœ¾“ğœ¾”ğœ¾•ğœ¾–ğœ¾—ğœ¾˜ğœ¾™ğœ¾¢ğœ¾£ğœ¾¥ğœ¾¦ğœ¾´ğœ¾µğœ¾¶ğœ¾·ğœ¾¹ğœ¾ºğœ¾¼ğœ¾½ğœ½‘ğœ½¥ğœ¾¡ğœ¾¤ğœ¾›ğœ¾œğœ¾ğœ¾ğœ¾Ÿğœ¾ ğœ¾¡ğœ¾¤/_comma ğœ¾§ğœ¾¨ğœ¾©ğœ¾ªğœ¾«ğœ¾¬ğœ¾­ğœ¾®ğœ½–ğœ¾¯ğœ½•ğœ¾°ğœ¾±ğœ¾²ğœ½¤ğœ½¥ğœ½¦ğœ¾³ğœ¾¸ğœ¾»ğœ¾¾
ğœ¾„ğœ¾…/_haczek ğœ¾›ğœ¾šğœ¾¿ğœ¿€ğœ¾ƒğœ¿ğœ¿‚ğœ¿ƒ",
"ğœ¼§   ğœ½°",
"ğœ½°",
"ğœ¼‚ğœ½ğœ¼±ğœ¼¶ğœ¼†",
"ğœ¾ƒ/_vert.stem",
"ğœ½“ğœ¼‚ğœ¼‚ğœ¼‚ğœ¼‚",
"ğœ½
ğœ½ğœ¼µ
ğœ½ğœ¼³
ğœ½‘ğœ¼± ğœ¼‡ğœ¼§
ğœ½ğœ¼±ğœ¼¶ğœ¼†
ğœ½ğœ¼±ğœ¼†ğœ¼¦
ğœ½’ğœ¼†
ğœ½’ğœ¼µğœ¼†
ğœ½’ğœ¼³ğœ¼†
ğœ½’ğœ¼¶ğœ¼†
ğœ½’ğœ¼¦ğœ¼†
ğœ½ğœ¼ƒ
ğœ½ğœ¼µğœ¼ƒ
ğœ½ğœ¼ƒğœ¾
ğœ½–ğœ¼†
ğœ½–ğœ¼µğœ¼†
ğœ½—ğœ¼†
ğœ½”ğœ¼†
ğœ½›ğœ¼†
ğœ½°ğœ¼±ğœ¼†
ğœ½œğœ¼†
ğœ½œğœ¼µğœ¼†
ğœ½œğœ¼†ğœ¼¦
ğœ½œğœ¼½
ğœ½œğœ¼½ğœ¼¦ğœ¼†ğœ¼©
ğœ½±ğœ½²ğœ¼†ğœ½³
ğœ½´ğœ¼†
ğœ½²ğœ¼¤
ğœ½²ğœ¼£
ğœ½²ğœ¼³ğœ¼£
ğœ½­ğœ¼ˆğœ¼¤
ğœ½˜ğœ¼¤
ğœ½˜ğœ¼…ğœ¼§
      ğœ½˜ğœ¼¦ğœ¼§
ğœ½˜ğœ¼…  ğœ¼¥
ğœ½
ğœ½Ÿğœ¼£
ğœ½¯ğœ¼†
ğœ½¯ğœ¼…ğœ¼§
ğœ½¯ğœ¼«  
ğœ½¯ğœ¼¼ğœ¼… /u1CF6F_u1CF3C 
ğœ¾†ğœ¼ƒ
ğœ¾‡ğœ¼ƒ
ğœ¾‡ğœ¼…ğœ¼£
ğœ¾ˆğœ¼„
ğœ¾ğœ¼£ğœ¼…
ğœ¾†ğœ¼° ğœ¼… /u1CF86_u1CF30 
ğœ¾’ğœ¼†
ğœ¾’ğœ¼°ğœ¼†  ğœ¼¢ 
ğœ¾’ğœ¼°ğœ¼»ğœ¼…ğœ¼¢ğœ¼ª

glyphs = (
{
glyphname = bar;
lastChange = "2023-08-15 16:20:37 +0000";
layers = (
{
layerId = m01;
shapes = (
{
closed = 1;
nodes = (
(18,0,l),
(18,800,l),
(0,800,l),
(0,0,l)
);
}
);
width = 18;
}
);
unicode = 124;
},
{
glyphname = u1CF86_u1CF85;
lastChange = "2023-12-07 19:57:53 +0000";
layers = (
{
layerId = m01;
shapes = (
{
ref = u1CF86;
},
{
closed = 1;
nodes = (
(415,203,o),
(427,206,o),
(428,215,cs),
(433,248,o),
(445,276,o),
(454,303,c),
(410,331,o),
(363,355,o),
(313,375,c),
(302,376,o),
(290,373,o),
(289,364,cs),
(285,331,o),
(272,303,o),
(263,276,c),
(308,259,o),
(355,235,o),
(404,204,c)
);
},
{
closed = 1;
nodes = (
(404,-9,o),
(416,-6,o),
(417,3,cs),
(422,36,o),
(434,64,o),
(443,91,c),
(399,119,o),
(352,143,o),
(302,163,c),
(291,164,o),
(279,161,o),
(278,152,cs),
(274,119,o),
(261,91,o),
(252,64,c),
(297,47,o),
(344,23,o),
(393,-8,c)
);
},
{
pos = (157,80);
ref = u1CF3A;
}
);
width = 464;
}
);
},
{
glyphname = u1CF8B_u1CF30;
lastChange = "2023-12-07 20:00:38 +0000";
layers = (
{
anchors = (
{
name = bottom_1;
pos = (164,0);
},
{
name = bottom_2;
pos = (164,0);
},
{
name = bottomleft_1;
pos = (32,-5);
},
{
name = bottomleft_2;
pos = (32,-5);
},
{
name = bottomright_1;
pos = (314,-2);
},
{
name = bottomright_2;
pos = (314,-2);
},
{
name = centre_1;
pos = (205,111);
},
{
name = centre_2;
pos = (205,111);
},
{
name = top_1;
pos = (76,353);
},
{
name = top_2;
pos = (76,353);
}
);
background = {
shapes = (
{
closed = 1;
nodes = (
(75,353,l),
(76,352,l),
(77,353,l),
(76,354,l)
);
}
);
};
layerId = m01;
shapes = (
{
ref = u1CF8B;
},
{
alignment = -1;
pos = (-32,109);
ref = _curve;
}
);
width = 345;
}
);
},
{
color = 9;
glyphname = u1CF02;
lastChange = "2023-10-18 15:13:07 +0000";
layers = (
{
anchors = (
{
name = _top;
pos = (15,288);
},
{
name = top;
pos = (213,443);
}
);
layerId = m01;
shapes = (
{
closed = 1;
nodes = (
(-128,297,o),
(-99,301,o),
(-97,305,cs),
(-79,351,o),
(-53,373,o),
(-38,401,c),
(-36,403,o),
(-35,416,o),
(-38,416,c),
(-52,418,o),
(-59,418,o),
(-71,421,c),
(-79,407,l),
(-73,400,l),
(-64,400,o),
(-68,387,o),
(-72,382,cs),
(-88,362,o),
(-121,344,o),
(-138,316,cs),
(-143,308,o),
(-138,297,o),
(-133,297,cs)
);
},
{
angle = 180;
pos = (-275,958);
ref = u1CF07;
}
);
width = 0;
},
{
associatedMasterId = m01;
background = {
shapes = (
{
closed = 1;
nodes = (
(-86,329,o),
(-72,361,o),
(-41,402,c),
(-45,409,l),
(-251,409,l),
(-251,394,l),
(-64,394,l),
(-88,369,o),
(-119,328,o),
(-133,297,c),
(-99,288,l)
);
},
{
alignment = -1;
pos = (-560,0);
ref = _stem;
},
{
alignment = -1;
pos = (-454,0);
ref = _stem;
}
);
};
layerId = "4FA53481-A70A-4B25-9577-D24C108D771B";
name = "15 Aug 23 at 22:06";
shapes = (
{
closed = 1;
nodes = (
(-86,329,o),
(-72,361,o),
(-41,402,c),
(-45,409,l),
(-251,409,l),
(-251,394,l),
(-64,394,l),
(-88,369,o),
(-119,328,o),
(-133,297,c),
(-99,288,l)
);
},
{
alignment = -1;
pos = (-560,0);
ref = _stem;
},
{
alignment = -1;
pos = (-454,0);
ref = _stem;
}
);
width = 0;
}
);
unicode = 118530;
},
{
color = 9;
glyphname = u1CF03;
lastChange = "2023-12-07 12:41:42 +0000";
layers = (
{
anchors = (
{
name = _top;
pos = (-85,328);
},
{
name = top;
pos = (153,473);
}
);
layerId = m01;
shapes = (
{
closed = 1;
nodes = (
(-65,503,o),
(-58,512,o),
(-58,515,cs),
(-58,534,o),
(-58,540,o),
(-56,559,c),
(-68,560,o),
(-97,558,o),
(-116,558,cs),
(-179,558,ls),
(-192,558,o),
(-200,559,o),
(-212,560,c),
(-216,556,o),
(-217,544,o),
(-214,543,cs),
(-206,541,o),
(-202,540,o),
(-194,537,c),
(-181,523,l),
(-157,526,l),
(-156,538,o),
(-149,539,o),
(-130,540,cs),
(-116,540,o),
(-107,539,o),
(-96,535,c),
(-95,524,o),
(-96,511,o),
(-94,505,cs),
(-93,503,o),
(-90,502,o),
(-87,502,c)
);
},
{
closed = 1;
nodes = (
(-202,401,o),
(-186,402,o),
(-169,402,cs),
(-160,402,o),
(-146,401,o),
(-131,400,c),
(-128,404,o),
(-126,415,o),
(-129,416,cs),
(-140,419,o),
(-147,421,o),
(-159,422,c),
(-167,437,l),
(-196,440,l),
(-197,421,o),
(-202,418,o),
(-212,417,c),
(-217,412,o),
(-219,399,o),
(-215,400,cs)
);
},
{
closed = 1;
nodes = (
(-157,402,l),
(-158,448,ls),
(-159,482,o),
(-158,508,o),
(-155,550,c),
(-195,540,l),
(-194,498,o),
(-195,458,o),
(-196,440,cs),
(-198,402,l)
);
}
);
width = 0;
},
{
associatedMasterId = m01;
layerId = "CE7F936C-9773-462F-9B5A-CD838FCD9F45";
name = "15 Aug 23 at 21:56";
shapes = (
{
closed = 1;
nodes = (
(-137,542,o),
(-84,542,o),
(-35,544,c),
(-34,559,l),
(-91,557,o),
(-145,557,o),
(-194,559,c),
(-194,544,l)
);
},
{
pos = (-510,0);
ref = _stem;
},
{
closed = 1;
nodes = (
(-35,517,o),
(-35,533,o),
(-34,559,c),
(-72,548,l),
(-72,536,o),
(-72,524,o),
(-73,512,c),
(-60,507,o),
(-50,504,o),
(-34,502,c)
);
}
);
width = 0;
}
);
unicode = 118531;
},
{
color = 9;
glyphname = u1CF04;
lastChange = "2023-12-07 12:41:44 +0000";
layers = (
{
anchors = (
{
name = _top;
pos = (-85,328);
},
{
name = top;
pos = (153,473);
}
);
layerId = m01;
shapes = (
{
closed = 1;
nodes = (
(-54,402,l),
(-54,448,ls),
(-54,484,o),
(-55,508,o),
(-52,550,c),
(-92,534,l),
(-90,495,o),
(-91,470,o),
(-93,440,cs),
(-95,402,l)
);
},
{
closed = 1;
nodes = (
(-206,401,o),
(-190,402,o),
(-173,402,cs),
(-167,402,o),
(-157,401,o),
(-147,400,c),
(-144,404,o),
(-142,415,o),
(-145,416,cs),
(-152,418,o),
(-156,421,o),
(-163,422,c),
(-171,437,l),
(-200,440,l),
(-201,421,o),
(-206,418,o),
(-216,417,c),
(-221,412,o),
(-223,399,o),
(-219,400,cs)
);
},
{
closed = 1;
nodes = (
(-161,402,l),
(-162,448,ls),
(-163,482,o),
(-162,508,o),
(-159,550,c),
(-199,540,l),
(-198,498,o),
(-199,458,o),
(-200,440,cs),
(-202,402,l)
);
},
{
closed = 1;
nodes = (
(-100,401,o),
(-86,402,o),
(-66,402,cs),
(-59,402,o),
(-50,401,o),
(-39,400,c),
(-35,404,o),
(-34,415,o),
(-37,416,cs),
(-44,419,o),
(-49,421,o),
(-56,422,c),
(-65,437,l),
(-93,440,l),
(-94,421,o),
(-104,417,o),
(-109,417,c),
(-113,412,o),
(-117,399,o),
(-111,400,cs)
);
},
{
closed = 1;
nodes = (
(-148,473,o),
(-120,475,o),
(-89,469,c),
(-84,492,l),
(-102,490,o),
(-134,489,o),
(-170,492,c),
(-168,470,l)
);
},
{
closed = 1;
nodes = (
(-50,558,o),
(-66,557,o),
(-83,557,cs),
(-89,557,o),
(-99,558,o),
(-109,559,c),
(-112,555,o),
(-114,544,o),
(-111,543,cs),
(-104,541,o),
(-100,538,o),
(-93,537,c),
(-85,522,l),
(-56,519,l),
(-55,538,o),
(-50,541,o),
(-40,542,c),
(-35,547,o),
(-33,560,o),
(-37,559,cs)
);
},
{
closed = 1;
nodes = (
(-156,558,o),
(-170,557,o),
(-190,557,cs),
(-197,557,o),
(-206,558,o),
(-217,559,c),
(-221,555,o),
(-222,544,o),
(-219,543,cs),
(-212,540,o),
(-207,538,o),
(-200,537,c),
(-191,522,l),
(-163,519,l),
(-162,538,o),
(-152,542,o),
(-147,542,c),
(-143,547,o),
(-139,560,o),
(-145,559,cs)
);
}
);
width = 0;
},
{
associatedMasterId = m01;
layerId = "C2A04144-6949-4EA0-BC47-D77550261CB2";
name = "15 Aug 23 at 21:54";
shapes = (
{
closed = 1;
nodes = (
(-130,474,o),
(-97,474,o),
(-61,473,c),
(-61,490,l),
(-91,489,o),
(-124,489,o),
(-160,490,c),
(-160,473,l)
);
},
{
alignment = -1;
pos = (-520,0);
ref = _stem;
},
{
alignment = -1;
pos = (-414,0);
ref = _stem;
}
);
width = 0;
}
);
unicode = 118532;
},
{
color = 9;
glyphname = u1CF05;
lastChange = "2023-12-07 18:27:51 +0000";
layers = (
{
anchors = (
{
name = _top;
pos = (5,328);
},
{
name = top;
pos = (243,473);
}
);
layerId = m01;
shapes = (
{
closed = 1;
nodes = (
(-24,430,o),
(-9,443,o),
(-9,463,cs),
(-9,483,o),
(-24,496,o),
(-42,496,cs),
(-60,496,o),
(-75,483,o),
(-75,463,cs),
(-75,443,o),
(-60,430,o),
(-42,430,cs)
);
}
);
width = 0;
}
);
unicode = 118533;
},
{
color = 9;
glyphname = u1CF06;
lastChange = "2023-12-07 13:11:36 +0000";
layers = (
{
anchors = (
{
name = _top;
pos = (-85,328);
},
{
name = top;
pos = (153,473);
}
);
layerId = m01;
shapes = (
{
closed = 1;
nodes = (
(-284,423,o),
(-297,430,o),
(-307,441,c),
(-310,441,l),
(-315,438,o),
(-318,423,o),
(-318,418,cs),
(-317,407,o),
(-303,399,o),
(-287,399,cs),
(-248,399,o),
(-207,468,o),
(-187,510,c),
(-190,509,l),
(-192,478,o),
(-196,449,o),
(-199,413,cs),
(-198,402,o),
(-191,397,o),
(-170,397,c),
(-168,398,l),
(-159,442,o),
(-135,478,o),
(-102,506,c),
(-107,514,l),
(-119,480,o),
(-124,456,o),
(-122,438,cs),
(-119,413,o),
(-103,399,o),
(-76,399,cs),
(-60,399,o),
(-45,413,o),
(-30,436,c),
(-29,439,o),
(-33,441,o),
(-38,442,c),
(-48,428,o),
(-58,416,o),
(-70,416,cs),
(-76,416,o),
(-83,424,o),
(-84,440,cs),
(-87,492,o),
(-62,541,o),
(-53,541,cs),
(-48,541,o),
(-39,537,o),
(-31,533,c),
(-28,533,l),
(-23,536,o),
(-20,546,o),
(-21,550,cs),
(-22,555,o),
(-44,558,o),
(-51,558,cs),
(-75,558,o),
(-142,500,o),
(-168,453,c),
(-158,458,l),
(-154,481,o),
(-152,507,o),
(-151,543,cs),
(-151,560,o),
(-175,561,o),
(-184,560,c),
(-206,499,o),
(-253,424,o),
(-279,423,c)
);
}
);
width = 0;
},
{
associatedMasterId = m01;
layerId = "8A431A76-1AA7-4861-9405-4DE1944D7317";
name = "15 Aug 23 at 18:26";
shapes = (
{
closed = 1;
nodes = (
(-34,405,l),
(-47,457,o),
(-61,508,o),
(-72,560,c),
(-84,556,o),
(-96,553,o),
(-108,551,c),
(-129,514,o),
(-149,477,o),
(-171,442,c),
(-156,440,l),
(-169,480,o),
(-179,520,o),
(-188,560,c),
(-199,556,o),
(-211,553,o),
(-222,551,c),
(-248,503,o),
(-276,455,o),
(-302,413,c),
(-285,402,l),
(-259,451,o),
(-230,499,o),
(-202,545,c),
(-223,548,l),
(-209,500,o),
(-197,453,o),
(-187,405,c),
(-174,400,l),
(-147,448,o),
(-118,498,o),
(-90,546,c),
(-107,546,l),
(-93,497,o),
(-81,448,o),
(-71,399,c)
);
}
);
width = 0;
}
);
unicode = 118534;
},
{
color = 9;
glyphname = u1CF07;
lastChange = "2023-12-07 12:42:03 +0000";
layers = (
{
anchors = (
{
name = _top;
pos = (-85,328);
},
{
name = top;
pos = (153,473);
}
);
layerId = m01;
shapes = (
{
closed = 1;
nodes = (
(-59,402,l),
(-59,448,ls),
(-59,484,o),
(-60,508,o),
(-57,550,c),
(-97,534,l),
(-95,495,o),
(-96,470,o),
(-98,440,cs),
(-100,402,l)
);
},
{
closed = 1;
nodes = (
(-211,401,o),
(-195,402,o),
(-178,402,cs),
(-172,402,o),
(-162,401,o),
(-152,400,c),
(-149,404,o),
(-147,415,o),
(-150,416,cs),
(-157,418,o),
(-161,421,o),
(-168,422,c),
(-176,437,l),
(-205,440,l),
(-206,421,o),
(-211,418,o),
(-221,417,c),
(-226,412,o),
(-228,399,o),
(-224,400,cs)
);
},
{
closed = 1;
nodes = (
(-166,402,l),
(-167,448,ls),
(-168,482,o),
(-167,508,o),
(-164,550,c),
(-204,540,l),
(-203,498,o),
(-204,458,o),
(-205,440,cs),
(-207,402,l)
);
},
{
closed = 1;
nodes = (
(-105,401,o),
(-91,402,o),
(-71,402,cs),
(-64,402,o),
(-55,401,o),
(-44,400,c),
(-40,404,o),
(-39,415,o),
(-42,416,cs),
(-49,419,o),
(-54,421,o),
(-61,422,c),
(-70,437,l),
(-98,440,l),
(-99,421,o),
(-109,417,o),
(-114,417,c),
(-118,412,o),
(-122,399,o),
(-116,400,cs)
);
},
{
closed = 1;
nodes = (
(-165,538,o),
(-157,539,o),
(-137,540,cs),
(-119,540,o),
(-109,538,o),
(-94,531,c),
(-81,527,l),
(-59,518,l),
(-59,537,o),
(-53,541,o),
(-41,541,c),
(-36,547,o),
(-33,561,o),
(-37,560,cs),
(-49,559,o),
(-65,558,o),
(-79,558,cs),
(-87,558,o),
(-107,558,o),
(-125,558,cs),
(-157,558,o),
(-181,558,o),
(-188,558,cs),
(-201,558,o),
(-209,559,o),
(-221,560,c),
(-225,556,o),
(-226,544,o),
(-223,543,cs),
(-215,541,o),
(-211,540,o),
(-203,537,c),
(-190,523,l),
(-166,526,l)
);
}
);
width = 0;
},
{
associatedMasterId = m01;
layerId = "10EC490C-F3E1-4586-93CF-AD62DC8ABA89";
name = "15 Aug 23 at 21:48";
shapes = (
{
closed = 1;
nodes = (
(-151,542,o),
(-85,542,o),
(-28,541,c),
(-28,558,l),
(-105,557,o),
(-171,557,o),
(-228,558,c),
(-228,541,l)
);
},
{
alignment = -1;
pos = (-542,0);
ref = _stem;
},
{
alignment = -1;
pos = (-436,0);
ref = _stem;
}
);
width = 0;
}
);
unicode = 118535;
},
{
color = 9;
glyphname = u1CF08;
lastChange = "2023-12-07 12:42:05 +0000";
layers = (
{
anchors = (
{
name = _top;
pos = (-85,328);
},
{
name = top;
pos = (153,473);
}
);
layerId = m01;
shapes = (
{
closed = 1;
nodes = (
(-59,402,l),
(-59,448,ls),
(-59,484,o),
(-60,508,o),
(-57,550,c),
(-97,534,l),
(-95,495,o),
(-96,470,o),
(-98,440,cs),
(-100,402,l)
);
},
{
closed = 1;
nodes = (
(-166,402,l),
(-167,448,ls),
(-168,482,o),
(-167,508,o),
(-164,550,c),
(-204,540,l),
(-203,498,o),
(-204,458,o),
(-205,440,cs),
(-207,402,l)
);
},
{
closed = 1;
nodes = (
(-165,538,o),
(-157,539,o),
(-137,540,cs),
(-119,540,o),
(-109,538,o),
(-94,531,c),
(-81,527,l),
(-59,518,l),
(-59,537,o),
(-53,541,o),
(-41,541,c),
(-36,547,o),
(-33,561,o),
(-37,560,cs),
(-50,559,o),
(-65,558,o),
(-79,558,cs),
(-87,558,o),
(-107,558,o),
(-125,558,cs),
(-157,558,o),
(-181,558,o),
(-188,558,cs),
(-201,558,o),
(-209,559,o),
(-221,560,c),
(-225,556,o),
(-226,544,o),
(-223,543,cs),
(-215,541,o),
(-211,540,o),
(-203,537,c),
(-190,523,l),
(-166,526,l)
);
},
{
closed = 1;
nodes = (
(-99,422,o),
(-107,421,o),
(-127,420,cs),
(-145,420,o),
(-155,422,o),
(-170,429,c),
(-183,433,l),
(-205,442,l),
(-205,423,o),
(-211,419,o),
(-223,419,c),
(-228,413,o),
(-231,399,o),
(-227,400,cs),
(-214,401,o),
(-199,402,o),
(-185,402,cs),
(-177,402,o),
(-157,402,o),
(-139,402,cs),
(-107,402,o),
(-83,402,o),
(-76,402,cs),
(-63,402,o),
(-55,401,o),
(-43,400,c),
(-39,404,o),
(-38,416,o),
(-41,417,cs),
(-49,419,o),
(-53,420,o),
(-61,423,c),
(-74,437,l),
(-98,434,l)
);
}
);
width = 0;
},
{
associatedMasterId = m01;
layerId = "D7D3D34B-C23F-416F-9F0F-F471E20A1150";
name = "15 Aug 23 at 21:48";
shapes = (
{
closed = 1;
nodes = (
(-151,542,o),
(-85,542,o),
(-28,541,c),
(-28,558,l),
(-105,557,o),
(-171,557,o),
(-228,558,c),
(-228,541,l)
);
},
{
closed = 1;
nodes = (
(-151,401,o),
(-85,401,o),
(-28,400,c),
(-28,417,l),
(-105,416,o),
(-171,416,o),
(-228,417,c),
(-228,400,l)
);
},
{
alignment = -1;
pos = (-538,0);
ref = _stem;
},
{
alignment = -1;
pos = (-432,0);
ref = _stem;
}
);
width = 0;
}
);
unicode = 118536;
},
{
color = 9;
glyphname = u1CF14;
lastChange = "2023-10-18 16:00:11 +0000";
layers = (
{
anchors = (
{
name = _bottom;
pos = (0,590);
},
{
name = bottom;
pos = (237,776);
}
);
layerId = m01;
shapes = (
{
pos = (256,0);
ref = u1CF08;
}
);
width = 0;
},
{
associatedMasterId = m01;
layerId = "B9CEEA8F-9A0A-470B-92A7-2138B6A5F96B";
name = "18 Jul 23 at 11:25";
shapes = (
{
alignment = -1;
ref = _stem;
},
{
alignment = -1;
pos = (106,0);
ref = _stem;
},
{
closed = 1;
nodes = (
(314,542,l),
(514,542,l),
(514,557,l),
(314,557,l)
);
},
{
closed = 1;
nodes = (
(306,394,l),
(506,394,l),
(506,409,l),
(306,409,l)
);
}
);
width = 600;
}
);
unicode = 118548;
},
{
color = 9;
glyphname = u1CF20;
lastChange = "2023-12-06 16:51:02 +0000";
layers = (
{
associatedMasterId = m01;
background = {
shapes = (
{
closed = 1;
nodes = (
(370,467,o),
(382,486,o),
(402,486,cs),
(416,486,o),
(430,476,o),
(430,455,cs),
(430,437,o),
(415,431,o),
(396,431,cs),
(380,431,o),
(364,437,o),
(350,437,cs),
(342,437,o),
(333,436,o),
(327,429,cs),
(320,421,o),
(318,411,o),
(317,411,c),
(317,409,o),
(319,409,o),
(320,409,c),
(321,409,l),
(328,415,o),
(334,421,o),
(347,421,cs),
(364,421,o),
(380,416,o),
(397,416,cs),
(430,416,o),
(461,429,o),
(461,462,cs),
(461,490,o),
(440,508,o),
(419,508,cs),
(397,508,o),
(380,488,o),
(364,488,cs),
(346,488,o),
(338,500,o),
(338,515,cs),
(338,530,o),
(350,540,o),
(367,540,cs),
(376,540,o),
(384,538,o),
(387,530,c),
(388,529,o),
(395,529,o),
(395,530,c),
(396,537,o),
(395,550,o),
(402,555,c),
(403,556,o),
(402,561,o),
(400,561,c),
(396,561,o),
(390,558,o),
(383,555,c),
(376,551,o),
(365,552,o),
(357,551,c),
(335,549,o),
(311,531,o),
(311,507,cs),
(311,486,o),
(331,467,o),
(352,467,cs)
);
},
{
closed = 1;
nodes = (
(370,467,o),
(382,486,o),
(402,486,cs),
(416,486,o),
(430,476,o),
(430,455,cs),
(430,437,o),
(415,431,o),
(396,431,cs),
(380,431,o),
(364,437,o),
(350,437,cs),
(342,437,o),
(333,436,o),
(327,429,cs),
(320,421,o),
(318,411,o),
(317,411,c),
(317,409,o),
(319,409,o),
(320,409,c),
(321,409,l),
(328,415,o),
(334,421,o),
(347,421,cs),
(364,421,o),
(380,416,o),
(397,416,cs),
(430,416,o),
(461,429,o),
(461,462,cs),
(461,490,o),
(440,508,o),
(419,508,cs),
(397,508,o),
(380,488,o),
(364,488,cs),
(346,488,o),
(338,500,o),
(338,515,cs),
(338,530,o),
(350,540,o),
(367,540,cs),
(376,540,o),
(384,538,o),
(387,530,c),
(388,529,o),
(395,529,o),
(395,530,c),
(396,537,o),
(395,550,o),
(402,555,c),
(403,556,o),
(402,561,o),
(400,561,c),
(396,561,o),
(390,558,o),
(383,555,c),
(376,551,o),
(365,552,o),
(357,551,c),
(335,549,o),
(311,531,o),
(311,507,cs),
(311,486,o),
(331,467,o),
(352,467,cs)
);
}
);
};
layerId = "1F6BD299-E3BC-4801-A42D-FF05FEEA3574";
name = "14 Jul 23 at 11:31";
shapes = (
{
closed = 1;
nodes = (
(370,467,o),
(382,486,o),
(402,486,cs),
(416,486,o),
(430,476,o),
(430,455,cs),
(430,437,o),
(415,431,o),
(396,431,cs),
(380,431,o),
(364,437,o),
(350,437,cs),
(342,437,o),
(333,436,o),
(327,429,cs),
(320,421,o),
(318,411,o),
(317,411,c),
(317,409,o),
(319,409,o),
(320,409,c),
(321,409,l),
(328,415,o),
(334,421,o),
(347,421,cs),
(364,421,o),
(380,416,o),
(397,416,cs),
(430,416,o),
(461,429,o),
(461,462,cs),
(461,490,o),
(440,508,o),
(419,508,cs),
(397,508,o),
(380,488,o),
(364,488,cs),
(346,488,o),
(338,500,o),
(338,515,cs),
(338,530,o),
(350,540,o),
(367,540,cs),
(376,540,o),
(384,538,o),
(387,530,c),
(388,529,o),
(395,529,o),
(395,530,c),
(396,537,o),
(395,550,o),
(402,555,c),
(403,556,o),
(402,561,o),
(400,561,c),
(396,561,o),
(390,558,o),
(383,555,c),
(376,551,o),
(365,552,o),
(357,551,c),
(335,549,o),
(311,531,o),
(311,507,cs),
(311,486,o),
(331,467,o),
(352,467,cs)
);
},
{
closed = 1;
nodes = (
(370,467,o),
(382,486,o),
(402,486,cs),
(416,486,o),
(430,476,o),
(430,455,cs),
(430,437,o),
(415,431,o),
(396,431,cs),
(380,431,o),
(364,437,o),
(350,437,cs),
(342,437,o),
(333,436,o),
(327,429,cs),
(320,421,o),
(318,411,o),
(317,411,c),
(317,409,o),
(319,409,o),
(320,409,c),
(321,409,l),
(328,415,o),
(334,421,o),
(347,421,cs),
(364,421,o),
(380,416,o),
(397,416,cs),
(430,416,o),
(461,429,o),
(461,462,cs),
(461,490,o),
(440,508,o),
(419,508,cs),
(397,508,o),
(380,488,o),
(364,488,cs),
(346,488,o),
(338,500,o),
(338,515,cs),
(338,530,o),
(350,540,o),
(367,540,cs),
(376,540,o),
(384,538,o),
(387,530,c),
(388,529,o),
(395,529,o),
(395,530,c),
(396,537,o),
(395,550,o),
(402,555,c),
(403,556,o),
(402,561,o),
(400,561,c),
(396,561,o),
(390,558,o),
(383,555,c),
(376,551,o),
(365,552,o),
(357,551,c),
(335,549,o),
(311,531,o),
(311,507,cs),
(311,486,o),
(331,467,o),
(352,467,cs)
);
}
);
width = 600;
},
{
associatedMasterId = m01;
background = {
shapes = (
{
closed = 1;
nodes = (
(370,467,o),
(382,486,o),
(402,486,cs),
(416,486,o),
(430,476,o),
(430,455,cs),
(430,437,o),
(415,431,o),
(396,431,cs),
(380,431,o),
(364,437,o),
(350,437,cs),
(342,437,o),
(333,436,o),
(327,429,cs),
(320,421,o),
(318,411,o),
(317,411,c),
(317,409,o),
(319,409,o),
(320,409,c),
(321,409,l),
(328,415,o),
(334,421,o),
(347,421,cs),
(364,421,o),
(380,416,o),
(397,416,cs),
(430,416,o),
(461,429,o),
(461,462,cs),
(461,490,o),
(440,508,o),
(419,508,cs),
(397,508,o),
(380,488,o),
(364,488,cs),
(346,488,o),
(338,500,o),
(338,515,cs),
(338,530,o),
(350,540,o),
(367,540,cs),
(376,540,o),
(384,538,o),
(387,530,c),
(388,529,o),
(395,529,o),
(395,530,c),
(396,537,o),
(395,550,o),
(402,555,c),
(403,556,o),
(402,561,o),
(400,561,c),
(396,561,o),
(390,558,o),
(383,555,c),
(376,551,o),
(365,552,o),
(357,551,c),
(335,549,o),
(311,531,o),
(311,507,cs),
(311,486,o),
(331,467,o),
(352,467,cs)
);
},
{
closed = 1;
nodes = (
(370,467,o),
(382,486,o),
(402,486,cs),
(416,486,o),
(430,476,o),
(430,455,cs),
(430,437,o),
(415,431,o),
(396,431,cs),
(380,431,o),
(364,437,o),
(350,437,cs),
(342,437,o),
(333,436,o),
(327,429,cs),
(320,421,o),
(318,411,o),
(317,411,c),
(317,409,o),
(319,409,o),
(320,409,c),
(321,409,l),
(328,415,o),
(334,421,o),
(347,421,cs),
(364,421,o),
(380,416,o),
(397,416,cs),
(430,416,o),
(461,429,o),
(461,462,cs),
(461,490,o),
(440,508,o),
(419,508,cs),
(397,508,o),
(380,488,o),
(364,488,cs),
(346,488,o),
(338,500,o),
(338,515,cs),
(338,530,o),
(350,540,o),
(367,540,cs),
(376,540,o),
(384,538,o),
(387,530,c),
(388,529,o),
(395,529,o),
(395,530,c),
(396,537,o),
(395,550,o),
(402,555,c),
(403,556,o),
(402,561,o),
(400,561,c),
(396,561,o),
(390,558,o),
(383,555,c),
(376,551,o),
(365,552,o),
(357,551,c),
(335,549,o),
(311,531,o),
(311,507,cs),
(311,486,o),
(331,467,o),
(352,467,cs)
);
}
);
};
layerId = "90E0C1BA-D0D9-46BC-91C6-4C78F77F6C32";
name = "14 Jul 23 at 11:33";
shapes = (
{
closed = 1;
nodes = (
(447,543,o),
(444,525,o),
(420,514,c),
(405,532,o),
(392,542,o),
(369,542,cs),
(352,542,o),
(341,534,o),
(341,521,cs),
(341,509,o),
(352,499,o),
(391,496,cs),
(440,492,o),
(464,478,o),
(464,446,cs),
(464,413,o),
(440,399,o),
(402,399,cs),
(375,399,o),
(365,406,o),
(344,406,cs),
(336,406,o),
(330,405,o),
(323,403,c),
(313,424,o),
(323,440,o),
(343,440,cs),
(374,440,o),
(387,416,o),
(417,416,cs),
(432,416,o),
(444,422,o),
(444,435,cs),
(444,453,o),
(427,460,o),
(393,463,cs),
(340,467,o),
(320,484,o),
(320,512,cs),
(320,541,o),
(343,560,o),
(386,560,cs),
(397,560,o),
(418,557,o),
(428,552,cs)
);
}
);
width = 600;
},
{
anchors = (
{
name = _top;
pos = (-85,328);
},
{
name = top;
pos = (113,483);
}
);
background = {
shapes = (
{
closed = 1;
nodes = (
(-67,537,o),
(-55,534,o),
(-46,530,c),
(-43,531,l),
(-35,540,o),
(-32,550,o),
(-36,552,cs),
(-42,555,o),
(-52,556,o),
(-63,556,cs),
(-82,556,o),
(-113,534,o),
(-113,516,cs),
(-113,488,o),
(-75,463,o),
(-75,440,cs),
(-75,432,o),
(-88,425,o),
(-95,425,cs),
(-106,425,o),
(-120,431,o),
(-129,442,c),
(-134,443,l),
(-142,440,o),
(-145,434,o),
(-145,427,cs),
(-145,411,o),
(-128,402,o),
(-105,402,cs),
(-86,402,o),
(-52,430,o),
(-52,459,cs),
(-52,478,o),
(-89,507,o),
(-89,526,cs),
(-89,531,o),
(-85,537,o),
(-77,537,cs)
);
}
);
};
layerId = m01;
name = Regular;
shapes = (
{
closed = 1;
nodes = (
(-81,536,o),
(-64,531,o),
(-51,525,c),
(-47,526,l),
(-38,539,o),
(-35,552,o),
(-41,556,cs),
(-48,559,o),
(-62,561,o),
(-78,561,cs),
(-97,561,o),
(-133,530,o),
(-133,515,cs),
(-133,478,o),
(-74,455,o),
(-74,441,cs),
(-74,431,o),
(-83,427,o),
(-92,427,cs),
(-106,427,o),
(-129,437,o),
(-141,453,c),
(-149,454,l),
(-156,450,o),
(-160,441,o),
(-160,433,cs),
(-160,412,o),
(-133,397,o),
(-105,397,cs),
(-83,397,o),
(-46,433,o),
(-46,457,cs),
(-46,485,o),
(-102,508,o),
(-102,525,cs),
(-102,531,o),
(-100,536,o),
(-91,536,cs)
);
}
);
width = 0;
},
{
associatedMasterId = m01;
background = {
shapes = (
{
closed = 1;
nodes = (
(175,537,o),
(187,534,o),
(196,530,c),
(199,531,l),
(207,540,o),
(210,550,o),
(206,552,cs),
(200,555,o),
(190,556,o),
(179,556,cs),
(160,556,o),
(129,534,o),
(129,516,cs),
(129,488,o),
(167,463,o),
(167,440,cs),
(167,432,o),
(154,425,o),
(147,425,cs),
(136,425,o),
(122,431,o),
(113,442,c),
(108,443,l),
(100,440,o),
(97,434,o),
(97,427,cs),
(97,411,o),
(114,402,o),
(137,402,cs),
(156,402,o),
(190,430,o),
(190,459,cs),
(190,478,o),
(153,507,o),
(153,526,cs),
(153,531,o),
(157,537,o),
(165,537,cs)
);
}
);
};
layerId = "46DADD3B-A066-4E23-B865-FFD1B12D0D80";
name = "15 Aug 23 at 20:42";
shapes = (
{
closed = 1;
nodes = (
(347,401,o),
(359,403,o),
(382,404,cs),
(419,405,o),
(463,413,o),
(463,457,cs),
(463,500,o),
(427,511,o),
(375,501,cs),
(346,495,o),
(323,498,o),
(323,515,cs),
(323,531,o),
(337,538,o),
(356,538,cs),
(374,538,o),
(386,532,o),
(398,525,c),
(407,533,o),
(411,540,o),
(411,546,cs),
(411,559,o),
(393,561,o),
(382,561,cs),
(356,561,o),
(301,549,o),
(301,503,cs),
(301,463,o),
(337,454,o),
(387,465,cs),
(417,472,o),
(440,462,o),
(440,447,cs),
(440,433,o),
(428,425,o),
(410,425,cs),
(389,425,o),
(379,432,o),
(358,432,cs),
(342,432,o),
(319,427,o),
(319,409,cs),
(319,403,o),
(322,396,o),
(328,390,c)
);
},
{
closed = 1;
nodes = (
(172,534,o),
(187,531,o),
(198,526,c),
(201,527,l),
(209,538,o),
(211,552,o),
(207,554,cs),
(200,557,o),
(188,558,o),
(175,558,cs),
(152,558,o),
(117,535,o),
(118,516,cs),
(120,486,o),
(170,456,o),
(171,430,cs),
(171,425,o),
(163,420,o),
(158,420,cs),
(144,420,o),
(123,428,o),
(111,440,c),
(106,441,l),
(98,438,o),
(95,431,o),
(96,424,cs),
(97,407,o),
(116,398,o),
(141,398,cs),
(164,398,o),
(203,427,o),
(201,457,cs),
(200,477,o),
(151,508,o),
(150,528,cs),
(150,531,o),
(153,534,o),
(160,534,cs)
);
}
);
width = 600;
}
);
unicode = 118560;
},
{
color = 9;
glyphname = u1CF21;
lastChange = "2023-12-06 16:51:06 +0000";
layers = (
{
anchors = (
{
name = _top;
pos = (-84,328);
},
{
name = top;
pos = (114,483);
}
);
background = {
shapes = (
{
closed = 1;
nodes = (
(-52,399,o),
(-14,430,o),
(-14,482,cs),
(-14,531,o),
(-48,560,o),
(-91,560,cs),
(-136,560,o),
(-174,529,o),
(-174,477,cs),
(-174,428,o),
(-140,399,o),
(-97,399,cs)
);
},
{
closed = 1;
nodes = (
(-114,414,o),
(-134,445,o),
(-134,487,cs),
(-134,520,o),
(-123,545,o),
(-100,545,cs),
(-75,545,o),
(-54,517,o),
(-54,473,cs),
(-54,442,o),
(-65,414,o),
(-89,414,cs)
);
}
);
};
layerId = m01;
shapes = (
{
closed = 1;
nodes = (
(-64,398,o),
(-30,445,o),
(-30,496,cs),
(-30,532,o),
(-50,560,o),
(-86,560,cs),
(-130,560,o),
(-164,514,o),
(-164,463,cs),
(-164,431,o),
(-149,398,o),
(-108,398,cs)
);
},
{
closed = 1;
nodes = (
(-126,449,o),
(-126,468,cs),
(-126,504,o),
(-112,542,o),
(-91,542,cs),
(-73,542,o),
(-68,508,o),
(-68,490,cs),
(-68,454,o),
(-82,416,o),
(-103,416,cs),
(-121,416,o)
);
}
);
width = 0;
},
{
associatedMasterId = m01;
layerId = "7BA1CC6A-2395-41EE-BF8A-1F69235560F0";
name = "15 Aug 23 at 19:22";
shapes = (
{
closed = 1;
nodes = (
(433,399,o),
(471,430,o),
(471,482,cs),
(471,531,o),
(437,560,o),
(394,560,cs),
(349,560,o),
(311,529,o),
(311,477,cs),
(311,428,o),
(345,399,o),
(388,399,cs)
);
},
{
closed = 1;
nodes = (
(371,414,o),
(351,445,o),
(351,487,cs),
(351,520,o),
(362,545,o),
(385,545,cs),
(410,545,o),
(431,517,o),
(431,473,cs),
(431,442,o),
(420,414,o),
(396,414,cs)
);
}
);
width = 600;
}
);
unicode = 118561;
},
{
color = 9;
glyphname = u1CF22;
lastChange = "2023-12-06 16:51:09 +0000";
layers = (
{
anchors = (
{
name = _top;
pos = (-85,328);
},
{
name = top;
pos = (113,483);
}
);
background = {
shapes = (
{
closed = 0;
nodes = (
(-113,463,ls),
(-141,463,o),
(-152,477,o),
(-152,493,cs),
(-152,523,o),
(-106,559,o),
(-68,559,cs)
);
},
{
closed = 0;
nodes = (
(-82,542,ls),
(-103,542,o),
(-124,523,o),
(-124,504,cs),
(-124,487,o),
(-111,480,o),
(-99,480,cs)
);
}
);
};
layerId = m01;
shapes = (
{
closed = 1;
nodes = (
(-73,465,o),
(-32,498,o),
(-32,527,cs),
(-32,549,o),
(-50,559,o),
(-73,559,cs),
(-145,559,o),
(-178,469,o),
(-185,395,c),
(-184,384,o),
(-161,386,o),
(-147,386,c),
(-144,429,o),
(-142,458,o),
(-122,495,c),
(-145,494,l),
(-143,470,o),
(-124,465,o),
(-109,465,cs)
);
},
{
closed = 1;
nodes = (
(-107,485,o),
(-118,491,o),
(-118,504,cs),
(-118,520,o),
(-102,537,o),
(-85,537,cs),
(-78,537,o),
(-68,531,o),
(-68,518,cs),
(-68,502,o),
(-83,485,o),
(-100,485,cs)
);
}
);
width = 0;
},
{
associatedMasterId = m01;
background = {
shapes = (
{
closed = 1;
nodes = (
(378,432,o),
(391,430,o),
(397,430,cs),
(432,430,o),
(466,445,o),
(474,492,c),
(475,495,o),
(475,499,o),
(475,502,cs),
(475,528,o),
(459,553,o),
(433,553,cs),
(395,553,o),
(365,507,o),
(345,451,cs),
(325,395,o),
(314,348,o),
(314,306,cs),
(314,298,o),
(319,286,o),
(328,286,c),
(329,286,l),
(339,286,o),
(347,299,o),
(347,307,cs),
(347,325,o),
(350,347,o),
(354,369,cs),
(359,394,o),
(365,418,o),
(372,433,c)
);
},
{
closed = 1;
nodes = (
(389,487,o),
(402,521,o),
(424,521,cs),
(436,521,o),
(445,513,o),
(445,500,cs),
(445,481,o),
(430,464,o),
(423,461,c),
(418,458,o),
(411,457,o),
(404,457,cs),
(398,457,o),
(396,457,o),
(379,461,c)
);
},
{
closed = 1;
nodes = (
(378,432,o),
(391,430,o),
(397,430,cs),
(432,430,o),
(466,445,o),
(474,492,c),
(475,495,o),
(475,499,o),
(475,502,cs),
(475,528,o),
(459,553,o),
(433,553,cs),
(395,553,o),
(365,507,o),
(345,451,cs),
(325,395,o),
(314,348,o),
(314,306,cs),
(314,298,o),
(319,286,o),
(328,286,c),
(329,286,l),
(339,286,o),
(347,299,o),
(347,307,cs),
(347,325,o),
(350,347,o),
(354,369,cs),
(359,394,o),
(365,418,o),
(372,433,c)
);
},
{
closed = 1;
nodes = (
(389,487,o),
(402,521,o),
(424,521,cs),
(436,521,o),
(445,513,o),
(445,500,cs),
(445,481,o),
(430,464,o),
(423,461,c),
(418,458,o),
(411,457,o),
(404,457,cs),
(398,457,o),
(396,457,o),
(379,461,c)
);
}
);
};
layerId = "2E034264-83EA-4A53-9E27-E74862F1DEFE";
name = "14 Jul 23 at 11:54";
shapes = (
{
closed = 1;
nodes = (
(315,290,l),
(353,290,l),
(353,481,ls),
(353,515,o),
(362,545,o),
(383,545,cs),
(408,545,o),
(420,522,o),
(420,496,cs),
(420,477,o),
(414,445,o),
(395,445,cs),
(378,445,o),
(359,450,o),
(342,470,c),
(339,438,l),
(353,434,o),
(370,431,o),
(385,431,cs),
(431,431,o),
(456,461,o),
(456,501,cs),
(456,542,o),
(427,560,o),
(395,560,cs),
(342,560,o),
(315,532,o),
(315,459,cs)
);
}
);
width = 600;
},
{
associatedMasterId = m01;
background = {
shapes = (
{
closed = 1;
nodes = (
(385,399,o),
(351,428,o),
(351,477,cs),
(351,529,o),
(389,560,o),
(434,560,cs),
(477,560,o),
(511,531,o),
(511,482,cs),
(511,430,o),
(473,399,o),
(428,399,cs)
);
},
{
closed = 1;
nodes = (
(402,545,o),
(391,520,o),
(391,487,cs),
(391,445,o),
(411,414,o),
(436,414,cs),
(460,414,o),
(471,442,o),
(471,473,cs),
(471,517,o),
(450,545,o),
(425,545,cs)
);
}
);
};
layerId = "D9410D3D-39F2-43AC-A01C-4B9B45B4A409";
name = "18 Jul 23 at 11:31";
shapes = (
{
closed = 1;
nodes = (
(389,560,o),
(356,518,o),
(337,467,cs),
(311,397,o),
(303,331,o),
(303,301,cs),
(303,284,o),
(328,290,o),
(341,290,c),
(341,332,o),
(353,410,o),
(374,467,c),
(356,453,l),
(363,438,o),
(386,431,o),
(404,431,cs),
(462,431,o),
(494,474,o),
(494,515,cs),
(494,547,o),
(468,560,o),
(440,560,cs)
);
},
{
closed = 1;
nodes = (
(396,525,o),
(413,542,o),
(429,542,cs),
(448,542,o),
(455,527,o),
(455,507,cs),
(455,482,o),
(438,448,o),
(411,448,cs),
(396,448,o),
(371,459,o),
(388,505,cs)
);
},
{
closed = 1;
nodes = (
);
}
);
width = 600;
},
{
associatedMasterId = m01;
background = {
shapes = (
{
closed = 1;
nodes = (
(344,332,o),
(358,400,o),
(375,444,c),
(353,426,l),
(360,408,o),
(383,399,o),
(408,399,cs),
(469,399,o),
(508,451,o),
(508,502,cs),
(508,543,o),
(482,560,o),
(445,560,cs),
(396,560,o),
(367,531,o),
(345,475,cs),
(323,419,o),
(308,335,o),
(308,308,cs),
(308,282,o),
(321,290,o),
(344,290,c)
);
},
{
closed = 1;
nodes = (
(391,415,o),
(379,432,o),
(379,457,cs),
(379,486,o),
(398,543,o),
(436,543,cs),
(457,543,o),
(469,526,o),
(469,499,cs),
(469,464,o),
(450,415,o),
(413,415,cs)
);
}
);
};
layerId = "162707FC-A3EF-4457-88AC-8C8EA8FD7714";
name = "15 Aug 23 at 19:16";
shapes = (
{
closed = 1;
nodes = (
(461,553,o),
(451,533,o),
(447,516,cs),
(440,484,o),
(453,463,o),
(482,463,cs),
(520,463,o),
(566,499,o),
(566,529,cs),
(566,545,o),
(555,559,o),
(531,559,cs),
(513,559,o),
(486,551,o),
(468,526,c),
(475,529,l),
(481,548,o),
(490,567,o),
(495,605,c),
(495,607,o),
(489,614,o),
(486,614,cs),
(435,614,o),
(414,586,o),
(400,550,cs),
(392,530,o),
(375,490,o),
(364,490,cs),
(357,490,o),
(354,499,o),
(345,499,cs),
(336,499,o),
(325,488,o),
(326,480,cs),
(326,474,o),
(338,464,o),
(348,464,cs),
(381,464,o),
(399,507,o),
(411,537,cs),
(424,572,o),
(438,590,o),
(458,590,cs),
(462,590,o),
(465,589,o),
(465,584,c)
);
},
{
closed = 1;
nodes = (
(484,480,o),
(471,486,o),
(471,504,cs),
(471,522,o),
(488,541,o),
(513,541,cs),
(524,541,o),
(538,535,o),
(538,518,cs),
(538,499,o),
(517,480,o),
(496,480,cs)
);
}
);
width = 600;
}
);
unicode = 118562;
},
{
color = 9;
glyphname = u1CF23;
lastChange = "2023-12-07 17:22:29 +0000";
layers = (
{
anchors = (
{
name = _centre;
pos = (2,60);
}
);
layerId = m01;
shapes = (
{
closed = 1;
nodes = (
(-104,93,o),
(60,93,o),
(245,91,c),
(247,98,o),
(248,106,o),
(250,113,c),
(104,111,o),
(-60,111,o),
(-245,113,c),
(-247,106,o),
(-248,98,o),
(-250,91,c)
);
}
);
width = 0;
}
);
unicode = 118563;
},
{
color = 9;
glyphname = u1CF24;
lastChange = "2023-12-07 18:25:10 +0000";
layers = (
{
anchors = (
{
name = _left;
pos = (37,483);
}
);
background = {
shapes = (
{
closed = 1;
nodes = (
(-204,155,o),
(-245,122,o),
(-245,93,cs),
(-245,71,o),
(-227,61,o),
(-204,61,cs),
(-132,61,o),
(-99,151,o),
(-92,225,c),
(-93,236,o),
(-116,234,o),
(-130,234,c),
(-133,191,o),
(-135,162,o),
(-155,125,c),
(-132,126,l),
(-134,150,o),
(-153,155,o),
(-168,155,cs)
);
},
{
closed = 1;
nodes = (
(-170,135,o),
(-159,129,o),
(-159,116,cs),
(-159,100,o),
(-175,83,o),
(-192,83,cs),
(-199,83,o),
(-209,89,o),
(-209,102,cs),
(-209,118,o),
(-194,135,o),
(-177,135,cs)
);
}
);
};
layerId = m01;
shapes = (
{
closed = 1;
nodes = (
(-134,494,o),
(-140,480,o),
(-146,450,cs),
(-152,418,o),
(-136,397,o),
(-103,397,cs),
(-65,397,o),
(-24,428,o),
(-24,459,cs),
(-24,481,o),
(-42,492,o),
(-63,492,cs),
(-81,492,o),
(-102,483,o),
(-120,458,c),
(-108,463,l),
(-102,485,o),
(-92,517,o),
(-87,547,c),
(-87,556,o),
(-102,561,o),
(-108,561,cs),
(-160,561,o),
(-177,527,o),
(-191,484,cs),
(-198,466,o),
(-207,432,o),
(-223,432,cs),
(-230,432,o),
(-234,441,o),
(-243,441,cs),
(-252,441,o),
(-263,425,o),
(-262,414,cs),
(-262,408,o),
(-249,398,o),
(-239,398,cs),
(-205,398,o),
(-188,441,o),
(-177,471,cs),
(-162,514,o),
(-149,537,o),
(-134,537,cs),
(-131,537,o),
(-128,536,o),
(-128,531,c)
);
},
{
closed = 1;
nodes = (
(-104,416,o),
(-112,423,o),
(-112,436,cs),
(-112,452,o),
(-96,470,o),
(-78,470,cs),
(-67,470,o),
(-59,463,o),
(-59,450,cs),
(-59,434,o),
(-75,416,o),
(-93,416,cs)
);
}
);
width = 0;
},
{
associatedMasterId = m01;
background = {
shapes = (
{
closed = 1;
nodes = (
(321,84,o),
(343,47,o),
(383,39,c),
(385,39,o),
(387,38,o),
(388,38,c),
(397,38,o),
(401,43,o),
(401,48,cs),
(401,53,o),
(398,57,o),
(392,60,cs),
(376,68,o),
(354,97,o),
(354,149,cs),
(354,202,o),
(401,259,o),
(440,290,cs),
(453,300,o),
(493,332,o),
(508,332,cs),
(527,332,o),
(531,316,o),
(531,302,cs),
(531,266,o),
(503,220,o),
(483,162,c),
(481,155,o),
(480,149,o),
(480,143,cs),
(480,119,o),
(494,103,o),
(519,103,cs),
(552,103,o),
(578,123,o),
(588,160,c),
(590,166,o),
(590,172,o),
(590,177,cs),
(590,208,o),
(563,217,o),
(544,217,cs),
(539,217,o),
(534,216,o),
(531,215,c),
(531,215,o),
(563,282,o),
(563,311,cs),
(563,341,o),
(558,359,o),
(525,359,cs),
(452,359,o),
(321,219,o),
(321,138,cs)
);
},
{
closed = 1;
nodes = (
(561,154,o),
(556,128,o),
(532,128,cs),
(518,128,o),
(507,141,o),
(507,153,c),
(507,155,o),
(507,157,o),
(508,159,c),
(513,174,o),
(518,184,o),
(521,190,cs),
(523,194,o),
(528,196,o),
(534,196,cs),
(546,196,o),
(561,188,o),
(561,170,cs)
);
},
{
closed = 1;
nodes = (
(321,84,o),
(343,47,o),
(383,39,c),
(385,39,o),
(387,38,o),
(388,38,c),
(397,38,o),
(401,43,o),
(401,48,cs),
(401,53,o),
(398,57,o),
(392,60,cs),
(376,68,o),
(354,97,o),
(354,149,cs),
(354,202,o),
(401,259,o),
(440,290,cs),
(453,300,o),
(493,332,o),
(508,332,cs),
(527,332,o),
(531,316,o),
(531,302,cs),
(531,266,o),
(503,220,o),
(483,162,c),
(481,155,o),
(480,149,o),
(480,143,cs),
(480,119,o),
(494,103,o),
(519,103,cs),
(552,103,o),
(578,123,o),
(588,160,c),
(590,166,o),
(590,172,o),
(590,177,cs),
(590,208,o),
(563,217,o),
(544,217,cs),
(539,217,o),
(534,216,o),
(531,215,c),
(531,215,o),
(563,282,o),
(563,311,cs),
(563,341,o),
(558,359,o),
(525,359,cs),
(452,359,o),
(321,219,o),
(321,138,cs)
);
},
{
closed = 1;
nodes = (
(561,154,o),
(556,128,o),
(532,128,cs),
(518,128,o),
(507,141,o),
(507,153,c),
(507,155,o),
(507,157,o),
(508,159,c),
(513,174,o),
(518,184,o),
(521,190,cs),
(523,194,o),
(528,196,o),
(534,196,cs),
(546,196,o),
(561,188,o),
(561,170,cs)
);
}
);
};
layerId = "43EEB8A0-A3A7-4CA2-B678-376E484DACFD";
name = "18 Jul 23 at 11:36";
shapes = (
{
closed = 1;
nodes = (
(558,271,o),
(558,324,cs),
(558,343,o),
(547,359,o),
(517,359,cs),
(443,359,o),
(317,284,o),
(317,135,cs),
(317,81,o),
(343,39,o),
(386,39,cs),
(400,39,o),
(406,48,o),
(406,66,c),
(371,66,o),
(356,104,o),
(356,152,cs),
(356,273,o),
(428,330,o),
(494,330,cs),
(504,330,o),
(515,331,o),
(515,311,cs),
(515,263,o),
(480,209,o),
(479,149,cs),
(479,112,o),
(504,90,o),
(534,90,cs),
(579,90,o),
(620,117,o),
(620,164,cs),
(620,193,o),
(603,219,o),
(564,219,cs),
(546,219,o),
(524,211,o),
(508,188,c),
(514,138,l),
(520,189,o),
(540,205,o),
(556,205,cs),
(576,205,o),
(580,184,o),
(580,168,cs),
(580,142,o),
(565,106,o),
(542,106,cs),
(520,106,o),
(515,118,o),
(515,136,cs),
(515,193,o)
);
}
);
width = 600;
},
{
associatedMasterId = m01;
background = {
shapes = (
{
closed = 1;
nodes = (
(395,39,o),
(401,47,o),
(401,66,c),
(366,66,o),
(351,103,o),
(351,155,cs),
(351,272,o),
(426,330,o),
(488,330,cs),
(506,330,o),
(510,325,o),
(510,313,cs),
(510,276,o),
(469,216,o),
(472,155,cs),
(474,115,o),
(494,90,o),
(540,90,cs),
(578,90,o),
(610,107,o),
(626,148,cs),
(645,199,o),
(626,251,o),
(565,251,cs),
(540,251,o),
(513,242,o),
(498,224,c),
(517,205,l),
(517,241,o),
(551,290,o),
(551,325,cs),
(551,343,o),
(542,359,o),
(510,359,cs),
(438,359,o),
(312,279,o),
(312,140,cs),
(312,65,o),
(349,39,o),
(379,39,cs)
);
},
{
closed = 1;
nodes = (
(502,107,o),
(501,157,o),
(514,193,cs),
(523,218,o),
(541,235,o),
(563,235,cs),
(600,235,o),
(601,186,o),
(588,151,cs),
(578,124,o),
(559,107,o),
(538,107,cs)
);
}
);
};
layerId = "E8198A1A-04CF-4E4E-BB89-BDD5DE5F2195";
name = "15 Aug 23 at 18:43";
shapes = (
{
closed = 1;
nodes = (
(395,39,o),
(401,47,o),
(401,66,c),
(366,66,o),
(351,103,o),
(351,155,cs),
(351,272,o),
(426,330,o),
(488,330,cs),
(506,330,o),
(510,325,o),
(510,313,cs),
(510,276,o),
(469,216,o),
(472,155,cs),
(474,115,o),
(494,90,o),
(540,90,cs),
(578,90,o),
(610,107,o),
(626,148,cs),
(645,199,o),
(626,251,o),
(565,251,cs),
(540,251,o),
(513,242,o),
(498,224,c),
(517,205,l),
(517,241,o),
(551,290,o),
(551,325,cs),
(551,343,o),
(542,359,o),
(510,359,cs),
(438,359,o),
(312,279,o),
(312,140,cs),
(312,65,o),
(349,39,o),
(379,39,cs)
);
},
{
closed = 1;
nodes = (
(502,107,o),
(501,157,o),
(514,193,cs),
(523,218,o),
(541,235,o),
(563,235,cs),
(600,235,o),
(601,186,o),
(588,151,cs),
(578,124,o),
(559,107,o),
(538,107,cs)
);
}
);
width = 600;
}
);
unicode = 118564;
},
{
color = 9;
glyphname = u1CF25;
lastChange = "2023-12-07 19:17:33 +0000";
layers = (
{
anchors = (
{
name = _left;
pos = (2,517);
}
);
background = {
shapes = (
{
closed = 1;
nodes = (
(309,-8,o),
(381,64,o),
(544,223,cs),
(559,238,o),
(534,250,o),
(518,249,c),
(409,128,o),
(371,106,o),
(328,106,cs),
(261,106,o),
(284,183,o),
(336,246,c),
(300,244,l),
(240,188,o),
(217,90,o),
(318,90,cs),
(344,90,o),
(370,96,o),
(386,112,c),
(375,110,l),
(285,14,o),
(226,-67,o),
(184,-132,cs),
(172,-150,o),
(183,-161,o),
(212,-162,c)
);
},
{
closed = 1;
nodes = (
(94,19,l),
(81,27,l),
(77,17,l),
(88,12,l)
);
}
);
};
layerId = m01;
shapes = (
{
closed = 1;
nodes = (
(-66,442,o),
(-174,336,o),
(-244,336,cs),
(-252,336,o),
(-259,337,o),
(-265,339,cs),
(-271,341,o),
(-277,333,o),
(-279,323,cs),
(-281,314,o),
(-280,307,o),
(-275,303,cs),
(-269,300,o),
(-254,299,o),
(-247,299,cs),
(-170,299,o),
(-29,456,o),
(-34,520,cs),
(-36,547,o),
(-48,562,o),
(-51,562,cs),
(-74,562,o),
(-99,553,o),
(-115,543,c),
(-119,541,o),
(-120,533,o),
(-110,526,c),
(-87,537,o),
(-73,533,o),
(-71,510,cs)
);
},
{
closed = 1;
nodes = (
(-98,428,l),
(-112,464,o),
(-141,513,o),
(-174,556,cs),
(-177,560,o),
(-182,562,o),
(-186,561,cs),
(-202,555,o),
(-217,549,o),
(-235,535,cs),
(-239,532,o),
(-238,523,o),
(-229,517,c),
(-209,531,o),
(-202,524,o),
(-194,515,cs),
(-163,481,o),
(-141,447,o),
(-121,400,c)
);
}
);
width = 0;
},
{
associatedMasterId = m01;
background = {
shapes = (
{
closed = 1;
nodes = (
(306,-157,o),
(310,-163,o),
(316,-163,cs),
(321,-163,o),
(326,-160,o),
(330,-153,c),
(340,-133,o),
(384,-72,o),
(400,-52,cs),
(444,4,o),
(500,62,o),
(546,107,cs),
(556,117,o),
(565,125,o),
(565,132,cs),
(565,140,o),
(556,145,o),
(550,145,cs),
(547,145,o),
(543,144,o),
(540,141,cs),
(518,119,o),
(511,98,o),
(459,98,cs),
(442,98,o),
(434,109,o),
(434,127,cs),
(434,133,o),
(437,140,o),
(437,147,cs),
(437,152,o),
(434,154,o),
(430,154,cs),
(415,154,o),
(408,134,o),
(405,119,c),
(405,114,ls),
(405,90,o),
(428,75,o),
(456,75,cs),
(475,75,o),
(486,81,o),
(486,81,c),
(471,69,o),
(428,20,o),
(404,-7,cs),
(362,-53,o),
(327,-109,o),
(318,-122,cs),
(308,-136,o),
(306,-143,o),
(306,-149,cs)
);
},
{
closed = 1;
nodes = (
(306,-157,o),
(310,-163,o),
(316,-163,cs),
(321,-163,o),
(326,-160,o),
(330,-153,c),
(340,-133,o),
(384,-72,o),
(400,-52,cs),
(444,4,o),
(500,62,o),
(546,107,cs),
(556,117,o),
(565,125,o),
(565,132,cs),
(565,140,o),
(556,145,o),
(550,145,cs),
(547,145,o),
(543,144,o),
(540,141,cs),
(518,119,o),
(511,98,o),
(459,98,cs),
(442,98,o),
(434,109,o),
(434,127,cs),
(434,133,o),
(437,140,o),
(437,147,cs),
(437,152,o),
(434,154,o),
(430,154,cs),
(415,154,o),
(408,134,o),
(405,119,c),
(405,114,ls),
(405,90,o),
(428,75,o),
(456,75,cs),
(475,75,o),
(486,81,o),
(486,81,c),
(471,69,o),
(428,20,o),
(404,-7,cs),
(362,-53,o),
(327,-109,o),
(318,-122,cs),
(308,-136,o),
(306,-143,o),
(306,-149,cs)
);
}
);
};
layerId = "9DF90DCD-EF73-4444-87E5-E5F6FBCEA1BD";
name = "18 Jul 23 at 12:20";
shapes = (
{
closed = 1;
nodes = (
(410,151,l),
(390,128,o),
(388,75,o),
(450,75,cs),
(474,75,o),
(489,80,o),
(501,87,c),
(492,88,l),
(415,10,o),
(355,-68,o),
(314,-132,cs),
(302,-150,o),
(313,-161,o),
(342,-162,c),
(410,-48,o),
(457,9,o),
(574,123,cs),
(589,138,o),
(564,150,o),
(548,149,c),
(517,109,o),
(493,91,o),
(462,91,cs),
(433,91,o),
(434,125,o),
(446,153,c)
);
}
);
width = 600;
},
{
associatedMasterId = m01;
layerId = "8F7BD611-728A-4C03-86F3-0632BCF221E7";
name = "15 Aug 23 at 21:23";
shapes = (
{
closed = 1;
nodes = (
(439,-8,o),
(511,64,o),
(674,223,cs),
(689,238,o),
(664,250,o),
(648,249,c),
(539,128,o),
(501,106,o),
(458,106,cs),
(391,106,o),
(414,183,o),
(466,246,c),
(430,244,l),
(370,188,o),
(347,90,o),
(448,90,cs),
(474,90,o),
(500,96,o),
(516,112,c),
(505,110,l),
(415,14,o),
(356,-67,o),
(314,-132,cs),
(302,-150,o),
(313,-161,o),
(342,-162,c)
);
},
{
closed = 1;
nodes = (
(290,417,o),
(160,275,o),
(76,275,cs),
(68,275,o),
(61,276,o),
(55,278,cs),
(49,280,o),
(43,272,o),
(41,262,cs),
(39,253,o),
(40,246,o),
(45,242,cs),
(51,239,o),
(57,238,o),
(64,238,cs),
(151,238,o),
(323,427,o),
(316,519,cs),
(314,546,o),
(302,561,o),
(299,561,cs),
(276,561,o),
(251,552,o),
(235,542,c),
(231,540,o),
(230,532,o),
(240,525,c),
(265,536,o),
(281,532,o),
(283,509,cs)
);
},
{
closed = 1;
nodes = (
(224,19,l),
(211,27,l),
(207,17,l),
(218,12,l)
);
},
{
closed = 1;
nodes = (
(247,390,l),
(234,437,o),
(226,485,o),
(177,555,c),
(173,559,o),
(168,561,o),
(164,560,cs),
(148,554,o),
(133,548,o),
(115,534,cs),
(111,531,o),
(112,522,o),
(121,516,c),
(142,530,o),
(151,523,o),
(158,514,cs),
(191,474,o),
(216,411,o),
(228,362,c)
);
}
);
width = 600;
}
);
unicode = 118565;
},
{
color = 9;
glyphname = u1CF26;
lastChange = "2023-12-07 19:26:27 +0000";
layers = (
{
anchors = (
{
name = _bottomright;
pos = (143,608);
}
);
layerId = m01;
shapes = (
{
closed = 1;
nodes = (
(166,397,o),
(211,453,o),
(218,560,cs),
(218,565,o),
(201,560,o),
(200,556,cs),
(195,520,o),
(171,459,o),
(120,459,cs),
(84,459,o),
(71,498,o),
(80,543,cs),
(81,548,o),
(62,545,o),
(61,539,cs),
(41,443,o),
(55,397,o),
(108,397,cs)
);
}
);
width = 250;
}
);
unicode = 118566;
},
{
color = 9;
glyphname = u1CF27;
lastChange = "2023-12-06 17:43:27 +0000";
layers = (
{
anchors = (
{
name = _bottomleft;
pos = (380,401);
},
{
name = bottom;
pos = (495,741);
}
);
background = {
shapes = (
{
closed = 1;
nodes = (
(-372,128,o),
(-342,170,o),
(-311,212,c),
(-327,213,l),
(-309,172,o),
(-294,130,o),
(-281,88,c),
(-244,101,l),
(-265,151,o),
(-283,197,o),
(-299,250,c),
(-309,252,l),
(-344,192,o),
(-379,144,o),
(-414,98,c),
(-399,88,l)
);
},
{
closed = 1;
nodes = (
(-109,89,o),
(-71,120,o),
(-71,173,cs),
(-71,221,o),
(-105,250,o),
(-147,250,cs),
(-193,250,o),
(-231,219,o),
(-231,166,cs),
(-231,118,o),
(-197,89,o),
(-155,89,cs)
);
},
{
closed = 1;
nodes = (
(-175,104,o),
(-191,139,o),
(-191,176,cs),
(-191,210,o),
(-177,235,o),
(-159,235,cs),
(-127,235,o),
(-111,200,o),
(-111,163,cs),
(-111,129,o),
(-125,104,o),
(-143,104,cs)
);
}
);
};
layerId = m01;
shapes = (
{
pos = (380,1);
ref = u1CF21;
},
{
closed = 1;
nodes = (
(142,428,o),
(150,417,o),
(130,417,c),
(126,412,o),
(122,399,o),
(128,400,cs),
(139,401,o),
(153,402,o),
(173,402,cs),
(180,402,o),
(189,401,o),
(200,400,c),
(204,404,o),
(205,415,o),
(202,416,cs),
(196,419,o),
(191,421,o),
(185,422,c),
(164,489,o),
(157,511,o),
(145,557,c),
(135,559,l),
(115,522,o),
(86,468,o),
(68,439,cs),
(60,426,o),
(49,418,o),
(38,417,c),
(33,412,o),
(31,399,o),
(35,400,c),
(44,401,o),
(54,402,o),
(66,402,cs),
(72,402,o),
(82,401,o),
(92,400,c),
(95,404,o),
(97,415,o),
(94,416,cs),
(88,418,o),
(84,421,o),
(78,422,c),
(94,454,o),
(111,485,o),
(133,522,c),
(117,523,l)
);
}
);
width = 0;
},
{
associatedMasterId = m01;
background = {
shapes = (
{
closed = 1;
nodes = (
(-372,128,o),
(-342,170,o),
(-311,212,c),
(-327,213,l),
(-309,172,o),
(-294,130,o),
(-281,88,c),
(-244,101,l),
(-265,151,o),
(-283,197,o),
(-299,250,c),
(-309,252,l),
(-344,192,o),
(-379,144,o),
(-414,98,c),
(-399,88,l)
);
},
{
closed = 1;
nodes = (
(-109,89,o),
(-71,120,o),
(-71,173,cs),
(-71,221,o),
(-105,250,o),
(-147,250,cs),
(-193,250,o),
(-231,219,o),
(-231,166,cs),
(-231,118,o),
(-197,89,o),
(-155,89,cs)
);
},
{
closed = 1;
nodes = (
(-175,104,o),
(-191,139,o),
(-191,176,cs),
(-191,210,o),
(-177,235,o),
(-159,235,cs),
(-127,235,o),
(-111,200,o),
(-111,163,cs),
(-111,129,o),
(-125,104,o),
(-143,104,cs)
);
}
);
};
layerId = "6C725683-98BA-4FAF-A38C-80A3B32B9497";
name = "15 Aug 23 at 23:19";
shapes = (
{
closed = 1;
nodes = (
(-372,128,o),
(-342,170,o),
(-311,212,c),
(-327,213,l),
(-309,172,o),
(-294,130,o),
(-281,88,c),
(-244,101,l),
(-265,151,o),
(-283,197,o),
(-299,250,c),
(-309,252,l),
(-344,192,o),
(-379,144,o),
(-414,98,c),
(-399,88,l)
);
},
{
closed = 1;
nodes = (
(-109,89,o),
(-71,120,o),
(-71,173,cs),
(-71,221,o),
(-105,250,o),
(-147,250,cs),
(-193,250,o),
(-231,219,o),
(-231,166,cs),
(-231,118,o),
(-197,89,o),
(-155,89,cs)
);
},
{
closed = 1;
nodes = (
(-175,104,o),
(-191,139,o),
(-191,176,cs),
(-191,210,o),
(-177,235,o),
(-159,235,cs),
(-127,235,o),
(-111,200,o),
(-111,163,cs),
(-111,129,o),
(-125,104,o),
(-143,104,cs)
);
}
);
width = 600;
}
);
unicode = 118567;
},
{
color = 9;
glyphname = u1CF2A;
lastChange = "2023-12-07 10:36:38 +0000";
layers = (
{
anchors = (
{
name = _right;
pos = (-2,165);
}
);
layerId = m01;
shapes = (
{
closed = 1;
nodes = (
(110,26,l),
(126,28,o),
(156,43,o),
(156,65,cs),
(156,87,o),
(129,100,o),
(105,100,cs),
(82,100,o),
(57,79,o),
(51,71,c),
(54,61,o),
(58,58,o),
(63,61,cs),
(72,68,o),
(90,75,o),
(96,75,cs),
(113,75,o),
(120,63,o),
(120,54,cs),
(120,43,o),
(94,32,o),
(68,33,cs),
(63,33,o),
(62,19,o),
(63,15,c),
(95,13,o),
(114,-1,o),
(114,-17,cs),
(114,-34,o),
(99,-42,o),
(82,-42,cs),
(67,-42,o),
(52,-29,o),
(38,-18,c),
(35,-18,l),
(27,-22,o),
(22,-37,o),
(22,-43,cs),
(22,-54,o),
(36,-62,o),
(68,-62,cs),
(108,-62,o),
(153,-37,o),
(153,-11,cs),
(153,9,o),
(131,28,o),
(110,34,c)
);
}
);
width = 0;
},
{
associatedMasterId = m01;
background = {
shapes = (
{
closed = 1;
nodes = (
(477,317,o),
(560,369,o),
(560,439,cs),
(560,494,o),
(507,509,o),
(475,509,c),
(474,505,l),
(501,505,o),
(543,523,o),
(543,564,cs),
(543,596,o),
(519,611,o),
(472,611,cs),
(423,611,o),
(388,580,o),
(378,567,cs),
(367,552,o),
(386,548,o),
(396,548,c),
(407,574,o),
(424,592,o),
(462,592,cs),
(486,592,o),
(507,580,o),
(507,553,cs),
(507,523,o),
(486,509,o),
(448,509,cs),
(439,509,o),
(439,500,o),
(446,494,c),
(483,494,o),
(531,467,o),
(531,414,cs),
(531,382,o),
(511,351,o),
(326,351,cs),
(312,351,o),
(309,332,o),
(318,317,c)
);
}
);
};
layerId = "AC6B780A-FA20-457E-9806-2E2442028CBB";
name = "15 Aug 23 at 18:42";
shapes = (
{
closed = 1;
nodes = (
(477,317,o),
(560,369,o),
(560,439,cs),
(560,494,o),
(507,509,o),
(475,509,c),
(474,505,l),
(501,505,o),
(543,523,o),
(543,564,cs),
(543,596,o),
(519,611,o),
(472,611,cs),
(423,611,o),
(388,580,o),
(378,567,cs),
(367,552,o),
(386,548,o),
(396,548,c),
(407,574,o),
(424,592,o),
(462,592,cs),
(486,592,o),
(507,580,o),
(507,553,cs),
(507,523,o),
(486,509,o),
(448,509,cs),
(439,509,o),
(439,500,o),
(446,494,c),
(483,494,o),
(531,467,o),
(531,414,cs),
(531,382,o),
(511,351,o),
(326,351,cs),
(312,351,o),
(309,332,o),
(318,317,c)
);
}
);
width = 600;
}
);
unicode = 118570;
},
{
color = 9;
glyphname = u1CF2B;
lastChange = "2023-12-07 10:01:57 +0000";
layers = (
{
anchors = (
{
name = _top;
pos = (-53,970);
}
);
layerId = m01;
shapes = (
{
closed = 1;
nodes = (
(-134,787,o),
(-163,783,o),
(-165,779,cs),
(-183,733,o),
(-209,711,o),
(-224,683,c),
(-226,681,o),
(-227,666,o),
(-224,666,cs),
(-201,667,o),
(-182,668,o),
(-124,668,cs),
(-92,668,o),
(-60,667,o),
(-28,667,c),
(-23,673,o),
(-20,686,o),
(-24,686,cs),
(-58,684,o),
(-73,684,o),
(-155,684,cs),
(-182,684,o),
(-187,684,o),
(-192,685,cs),
(-197,687,o),
(-193,698,o),
(-190,702,cs),
(-174,722,o),
(-141,740,o),
(-124,768,cs),
(-119,776,o),
(-124,787,o),
(-129,787,cs)
);
}
);
width = 0;
},
{
associatedMasterId = m01;
background = {
shapes = (
{
closed = 1;
nodes = (
(555,581,l),
(495,699,l),
(457,699,l),
(537,581,l)
);
},
{
closed = 1;
nodes = (
(555,581,l),
(544,596,l),
(338,596,l),
(338,581,l)
);
}
);
};
layerId = "6A14E79C-16B2-4772-93E8-3B23C901390D";
name = "18 Jul 23 at 12:31";
shapes = (
{
closed = 1;
nodes = (
(555,581,l),
(495,699,l),
(457,699,l),
(537,581,l)
);
},
{
closed = 1;
nodes = (
(555,581,l),
(544,596,l),
(338,596,l),
(338,581,l)
);
}
);
width = 600;
}
);
unicode = 118571;
},
{
color = 9;
glyphname = u1CF30;
lastChange = "2023-12-07 19:14:54 +0000";
layers = (
{
anchors = (
{
name = _topright;
pos = (163,448);
},
{
name = toptop;
pos = (67,601);
}
);
layerId = m01;
shapes = (
{
closed = 1;
nodes = (
(177,653,o),
(170,658,o),
(165,656,c),
(133,640,o),
(108,618,o),
(91,594,c),
(93,577,o),
(87,526,o),
(82,491,c),
(84,487,o),
(93,482,o),
(96,484,c),
(122,509,o),
(143,527,o),
(167,538,c),
(165,555,o),
(173,612,o),
(179,649,c)
);
}
);
width = 190;
},
{
associatedMasterId = m01;
layerId = "14A7A135-A0FE-44AF-9CDF-C075846022A8";
name = "4 Oct 23 at 14:38";
shapes = (
{
closed = 1;
nodes = (
(389,502,o),
(419,525,o),
(445,538,c),
(461,662,l),
(421,648,o),
(393,622,o),
(374,595,c),
(360,471,l)
);
}
);
width = 510;
}
);
unicode = 118576;
},
{
color = 9;
glyphname = u1CF31;
lastChange = "2023-12-07 19:43:23 +0000";
layers = (
{
anchors = (
{
name = _topright;
pos = (267,466);
},
{
name = toptop;
pos = (135,601);
}
);
background = {
shapes = (
{
closed = 1;
nodes = (
(245,653,o),
(238,658,o),
(233,656,c),
(201,640,o),
(176,618,o),
(159,594,c),
(161,577,o),
(155,526,o),
(150,491,c),
(152,487,o),
(161,482,o),
(164,484,c),
(190,509,o),
(211,527,o),
(235,538,c),
(233,555,o),
(241,612,o),
(247,649,c)
);
}
);
};
layerId = m01;
shapes = (
{
pos = (68,0);
ref = u1CF30;
},
{
pos = (-60,-115);
ref = u1CF30;
}
);
width = 298;
}
);
unicode = 118577;
},
{
color = 9;
glyphname = u1CF35;
lastChange = "2023-12-06 16:41:58 +0000";
layers = (
{
anchors = (
{
name = _right;
pos = (3,471);
}
);
layerId = m01;
shapes = (
{
closed = 1;
nodes = (
(51,323,o),
(63,323,o),
(64,333,cs),
(71,433,o),
(77,529,o),
(92,632,c),
(84,632,o),
(69,632,o),
(68,624,cs),
(61,524,o),
(53,429,o),
(40,327,c)
);
}
);
width = 120;
},
{
associatedMasterId = m01;
layerId = "DCC5B0A0-A828-46B1-8DB9-46BCAEE44E70";
name = "4 Oct 23 at 15:41";
shapes = (
{
closed = 1;
nodes = (
(48,330,o),
(56,332,o),
(63,333,c),
(71,433,o),
(80,532,o),
(92,632,c),
(84,628,o),
(76,626,o),
(69,624,c),
(61,524,o),
(52,427,o),
(40,327,c)
);
}
);
width = 120;
}
);
unicode = 118581;
},
{
color = 9;
glyphname = u1CF36;
lastChange = "2023-12-06 16:34:39 +0000";
layers = (
{
anchors = (
{
name = _bottom;
pos = (-52,0);
}
);
layerId = m01;
shapes = (
{
closed = 1;
nodes = (
(156,-8,o),
(197,61,o),
(208,193,c),
(200,196,o),
(193,194,o),
(192,188,cs),
(188,150,o),
(166,84,o),
(110,84,cs),
(67,84,o),
(64,133,o),
(74,171,c),
(65,174,o),
(58,172,o),
(57,167,cs),
(33,49,o),
(39,-8,o),
(98,-8,cs)
);
}
);
width = 240;
}
);
unicode = 118582;
},
{
color = 9;
glyphname = u1CF37;
lastChange = "2023-10-04 16:52:35 +0000";
layers = (
{
layerId = m01;
shapes = (
{
closed = 1;
nodes = (
(68,-293,o),
(80,-293,o),
(81,-283,cs),
(86,-229,o),
(92,-177,o),
(98,-124,c),
(80,-129,l),
(73,-182,o),
(66,-234,o),
(57,-289,c)
);
},
{
ref = u1CF36;
}
);
width = 240;
},
{
associatedMasterId = m01;
layerId = "1E996B9D-186A-4786-AAB5-AA152B99621F";
name = "4 Oct 23 at 17:35";
shapes = (
{
closed = 1;
nodes = (
(79,-283,l),
(98,-146,l),
(76,-151,l),
(57,-289,l)
);
},
{
ref = u1CF36;
}
);
width = 240;
}
);
unicode = 118583;
},
{
color = 9;
glyphname = u1CF3B;
lastChange = "2023-12-07 18:39:51 +0000";
layers = (
{
anchors = (
{
name = _topright;
pos = (-60,568);
}
);
layerId = m01;
shapes = (
{
closed = 1;
nodes = (
(147,712,l),
(154,765,o),
(161,817,o),
(170,872,c),
(159,876,o),
(147,876,o),
(146,866,cs),
(141,812,o),
(135,760,o),
(129,707,c)
);
},
{
pos = (27,679);
ref = u1CF36;
}
);
width = 270;
},
{
associatedMasterId = m01;
layerId = "AB4C1D98-62DD-4943-86BB-E3284F763A6A";
name = "4 Oct 23 at 17:35";
shapes = (
{
closed = 1;
nodes = (
(133,566,l),
(152,703,l),
(130,698,l),
(111,560,l)
);
},
{
pos = (27,679);
ref = u1CF36;
}
);
width = 270;
}
);
unicode = 118587;
},
{
color = 9;
glyphname = u1CF3C;
lastChange = "2023-12-07 10:03:49 +0000";
layers = (
{
anchors = (
{
name = _left;
pos = (133,262);
}
);
layerId = m01;
shapes = (
{
closed = 1;
nodes = (
(184,208,o),
(194,212,o),
(194,217,cs),
(194,245,o),
(197,273,o),
(201,301,c),
(166,327,o),
(129,349,o),
(93,366,c),
(85,365,o),
(78,361,o),
(78,357,cs),
(78,327,o),
(74,299,o),
(70,270,c),
(106,252,o),
(144,229,o),
(177,206,c)
);
}
);
width = 257;
},
{
associatedMasterId = m01;
layerId = "73DFB107-BDCD-48AB-97BB-AFA5B1532EEC";
name = "4 Oct 23 at 14:47";
shapes = (
{
closed = 1;
nodes = (
(201,301,l),
(79,374,l),
(70,270,l),
(192,197,l)
);
}
);
width = 257;
}
);
unicode = 118588;
},
{
color = 9;
glyphname = u1CF3F;
lastChange = "2023-12-06 16:57:09 +0000";
layers = (
{
anchors = (
{
name = left;
pos = (-7,401);
},
{
name = right;
pos = (232,401);
}
);
layerId = m01;
shapes = (
{
closed = 1;
nodes = (
(212,394,o),
(207,484,o),
(134,484,cs),
(78,484,o),
(38,419,o),
(30,320,cs),
(29,312,o),
(36,312,o),
(44,317,c),
(53,369,o),
(81,395,o),
(117,395,cs),
(160,395,o),
(181,365,o),
(166,212,cs),
(165,202,o),
(174,204,o),
(181,208,c)
);
}
);
width = 250;
}
);
unicode = 118591;
},
{
color = 9;
glyphname = u1CF41;
lastChange = "2023-10-04 16:52:35 +0000";
layers = (
{
layerId = m01;
shapes = (
{
closed = 1;
nodes = (
(81,-62,o),
(127,-62,o),
(184,-64,c),
(189,-49,o),
(199,-20,o),
(184,-20,c),
(147,-22,o),
(101,-22,o),
(44,-20,c),
(36,-35,o),
(29,-64,o),
(44,-64,c)
);
}
);
width = 600;
},
{
associatedMasterId = m01;
layerId = "445D4A31-9B88-4F3E-AE53-62D0C276C9F4";
name = "4 Oct 23 at 17:36";
shapes = (
{
closed = 1;
nodes = (
(184,-64,l),
(184,-20,l),
(44,-20,l),
(44,-64,l)
);
}
);
width = 600;
}
);
unicode = 118593;
},
{
color = 9;
glyphname = u1CF42;
lastChange = "2023-10-04 16:52:35 +0000";
layers = (
{
background = {
shapes = (
{
closed = 1;
nodes = (
(83,167,l),
(-1,220,l),
(-10,116,l),
(74,63,l)
);
}
);
};
layerId = m01;
shapes = (
{
ref = dottedCircle;
},
{
closed = 1;
nodes = (
(-3,175,o),
(-7,135,o),
(-9,118,c),
(15,107,o),
(36,89,o),
(62,64,c),
(65,62,o),
(74,67,o),
(76,71,c),
(74,106,o),
(80,140,o),
(82,157,c),
(63,181,o),
(38,203,o),
(8,219,c),
(3,221,o),
(-4,216,o),
(-6,212,c)
);
}
);
width = 600;
},
{
associatedMasterId = m01;
layerId = "9CF1375F-9846-4400-B7D8-AB2068BC467C";
name = "4 Oct 23 at 17:48";
shapes = (
{
closed = 1;
nodes = (
(83,167,l),
(-1,220,l),
(-10,116,l),
(74,63,l)
);
},
{
ref = dottedCircle;
}
);
width = 600;
}
);
unicode = 118594;
},
{
color = 9;
glyphname = u1CF43;
lastChange = "2023-10-04 16:52:35 +0000";
layers = (
{
background = {
shapes = (
{
closed = 1;
nodes = (
(134,559,l),
(50,612,l),
(41,508,l),
(125,455,l)
);
}
);
};
layerId = m01;
shapes = (
{
ref = dottedCircle;
},
{
closed = 1;
nodes = (
(50,566,o),
(46,526,o),
(44,509,c),
(68,498,o),
(89,480,o),
(115,455,c),
(118,453,o),
(127,458,o),
(129,462,c),
(127,497,o),
(133,531,o),
(135,548,c),
(116,572,o),
(91,594,o),
(61,610,c),
(56,612,o),
(49,607,o),
(47,603,c)
);
}
);
width = 600;
},
{
associatedMasterId = m01;
layerId = "A46E7823-D122-469E-B19C-0F4CB8CED531";
name = "4 Oct 23 at 17:49";
shapes = (
{
closed = 1;
nodes = (
(134,559,l),
(50,612,l),
(41,508,l),
(125,455,l)
);
},
{
ref = dottedCircle;
}
);
width = 600;
}
);
unicode = 118595;
},
{
color = 9;
glyphname = u1CF44;
lastChange = "2023-10-04 16:52:35 +0000";
layers = (
{
background = {
shapes = (
{
closed = 1;
nodes = (
(407,480,o),
(436,503,o),
(469,521,c),
(478,635,l),
(445,617,o),
(416,594,o),
(393,568,c),
(384,454,l)
);
}
);
};
layerId = m01;
shapes = (
{
ref = dottedCircle;
},
{
closed = 1;
nodes = (
(474,617,o),
(467,622,o),
(462,621,c),
(431,607,o),
(405,587,o),
(384,564,c),
(385,547,o),
(389,513,o),
(384,478,c),
(386,474,o),
(395,468,o),
(398,470,c),
(425,493,o),
(448,510,o),
(472,519,c),
(471,536,o),
(470,576,o),
(476,613,c)
);
}
);
width = 600;
},
{
associatedMasterId = m01;
layerId = "EC4CF560-2F23-4FBF-B852-4F72F1A752FB";
name = "4 Oct 23 at 17:50";
shapes = (
{
closed = 1;
nodes = (
(407,480,o),
(436,503,o),
(469,521,c),
(478,635,l),
(445,617,o),
(416,594,o),
(393,568,c),
(384,454,l)
);
},
{
ref = dottedCircle;
}
);
width = 600;
}
);
unicode = 118596;
},
{
color = 9;
glyphname = u1CF46;
lastChange = "2023-10-04 16:52:35 +0000";
layers = (
{
layerId = m01;
shapes = (
{
closed = 1;
nodes = (
(195,489,o),
(220,508,o),
(213,515,cs),
(189,539,o),
(163,558,o),
(133,571,c),
(107,567,o),
(83,548,o),
(97,541,cs),
(128,526,o),
(142,515,o),
(173,489,c)
);
},
{
ref = dottedCircle;
}
);
width = 600;
}
);
unicode = 118598;
},
{
color = 9;
glyphname = u1CF51;
lastChange = "2023-12-07 19:31:40 +0000";
layers = (
{
anchors = (
{
name = bottom;
pos = (321,93);
},
{
name = bottomleft;
},
{
name = bottomright;
pos = (571,419);
},
{
name = left;
pos = (-7,257);
},
{
name = right;
pos = (614,487);
},
{
name = top;
pos = (92,491);
}
);
layerId = m01;
shapes = (
{
alignment = -1;
ref = _vert.stem;
},
{
alignment = -1;
ref = _haczek;
},
{
closed = 1;
nodes = (
(256,309,l),
(244,213,o),
(233,117,o),
(229,26,c),
(245,23,o),
(253,26,o),
(254,36,cs),
(260,135,o),
(270,234,o),
(282,333,c)
);
}
);
width = 616;
}
);
unicode = 118609;
},
{
color = 9;
glyphname = u1CF52;
lastChange = "2023-12-07 19:31:21 +0000";
layers = (
{
anchors = (
{
name = bottom;
pos = (190,66);
},
{
name = bottomleft;
pos = (-1,-3);
},
{
name = bottomright;
pos = (565,401);
},
{
name = centre;
pos = (215,111);
},
{
name = left;
pos = (-35,252);
},
{
name = right;
pos = (614,487);
},
{
name = rightalt;
pos = (340,215);
},
{
name = top;
pos = (111,530);
}
);
background = {
shapes = (
{
pos = (-304,-111);
ref = u1CF30;
},
{
closed = 1;
nodes = (
(95,409,o),
(127,434,o),
(163,449,c),
(172,563,l),
(131,545,o),
(95,515,o),
(67,481,c),
(70,380,l)
);
}
);
};
layerId = m01;
shapes = (
{
alignment = -1;
ref = _vert.stem;
},
{
closed = 1;
nodes = (
(2,207,o),
(12,202,o),
(14,205,cs),
(29,222,o),
(45,236,o),
(64,249,c),
(62,357,l),
(43,340,o),
(25,323,o),
(9,304,c),
(10,286,o),
(6,247,o),
(0,212,c)
);
},
{
alignment = -1;
ref = _haczek;
},
{
closed = 1;
nodes = (
(153,542,o),
(147,547,o),
(142,545,cs),
(111,530,o),
(68,496,o),
(67,481,c),
(70,380,l),
(91,403,o),
(117,424,o),
(147,436,c),
(147,470,o),
(150,501,o),
(156,538,c)
);
}
);
width = 600;
},
{
associatedMasterId = m01;
background = {
shapes = (
{
pos = (-362,-279);
ref = u1CF30;
}
);
};
layerId = "E75B31D2-C31A-4237-8776-8242ABD2A1CE";
name = "6 Oct 23 at 14:36";
shapes = (
{
closed = 1;
nodes = (
(95,409,o),
(127,434,o),
(163,449,c),
(172,563,l),
(131,545,o),
(95,515,o),
(67,481,c),
(70,380,l)
);
},
{
alignment = -1;
ref = _vert.stem;
},
{
closed = 1;
nodes = (
(18,212,o),
(40,232,o),
(64,249,c),
(62,357,l),
(43,340,o),
(25,323,o),
(9,304,c),
(0,190,l)
);
},
{
alignment = -1;
ref = _haczek;
}
);
width = 600;
}
);
unicode = 118610;
},
{
color = 9;
glyphname = u1CF53;
lastChange = "2023-12-07 19:27:58 +0000";
layers = (
{
anchors = (
{
name = bottom;
pos = (287,134);
},
{
name = bottomleft;
pos = (19,29);
},
{
name = bottomright;
pos = (571,419);
},
{
name = centre;
pos = (217,99);
},
{
name = left;
pos = (2,279);
},
{
name = right;
pos = (640,450);
},
{
name = rightalt;
pos = (422,318);
},
{
name = top;
pos = (94,493);
},
{
name = topright;
pos = (493,572);
}
);
background = {
anchors = (
{
name = bottom;
pos = (287,134);
},
{
name = bottomleft;
pos = (19,29);
},
{
name = centre;
pos = (217,99);
},
{
name = left;
pos = (2,279);
},
{
name = right;
pos = (640,450);
},
{
name = rightalt;
pos = (514,363);
},
{
name = top;
pos = (94,493);
},
{
name = topright;
pos = (493,572);
}
);
shapes = (
{
alignment = -1;
pos = (163,91);
ref = _vert.stem;
},
{
alignment = -1;
pos = (243,111);
ref = _vert.stem;
}
);
};
layerId = m01;
shapes = (
{
closed = 1;
nodes = (
(228,299,l),
(240,395,o),
(251,491,o),
(255,582,c),
(239,585,o),
(231,582,o),
(230,572,cs),
(224,473,o),
(214,374,o),
(202,275,c)
);
},
{
alignment = -1;
ref = _vert.stem;
},
{
alignment = -1;
ref = _haczek;
},
{
closed = 1;
nodes = (
(315,379,l),
(324,455,o),
(331,531,o),
(335,602,c),
(319,605,o),
(311,602,o),
(310,592,c),
(305,513,o),
(298,434,o),
(289,355,c)
);
}
);
width = 600;
}
);
unicode = 118611;
},
{
color = 9;
glyphname = u1CF55;
lastChange = "2023-12-06 16:40:17 +0000";
layers = (
{
anchors = (
{
name = bottom;
pos = (321,93);
},
{
name = bottomleft;
pos = (74,0);
},
{
name = left;
pos = (68,139);
},
{
name = right;
pos = (689,487);
},
{
name = top;
pos = (281,473);
}
);
layerId = m01;
shapes = (
{
alignment = -1;
pos = (80,0);
ref = _vert.stem;
},
{
alignment = -1;
pos = (80,0);
ref = _haczek;
},
{
closed = 1;
nodes = (
(76,359,o),
(134,300,o),
(151,284,c),
(154,348,l),
(134,358,o),
(92,408,o),
(74,446,c),
(50,423,o),
(49,409,o),
(57,393,cs)
);
},
{
closed = 1;
nodes = (
(32,269,o),
(36,266,o),
(39,270,cs),
(46,279,o),
(53,283,o),
(60,283,cs),
(77,283,o),
(105,272,o),
(141,236,c),
(151,287,l),
(115,325,o),
(85,334,o),
(69,334,cs),
(55,334,o),
(44,329,o),
(35,321,c),
(35,308,o),
(32,290,o),
(29,274,c)
);
}
);
width = 680;
},
{
associatedMasterId = m01;
layerId = "CDCACD62-6B7A-47F6-A346-40E8550AE208";
name = "6 Oct 23 at 15:20";
shapes = (
{
alignment = -1;
pos = (80,0);
ref = _vert.stem;
},
{
alignment = -1;
pos = (80,0);
ref = _haczek;
},
{
closed = 1;
nodes = (
(153,353,l),
(59,460,l),
(49,399,l),
(143,292,l)
);
},
{
closed = 1;
nodes = (
(151,287,l),
(115,325,o),
(85,334,o),
(69,334,cs),
(55,334,o),
(44,329,o),
(35,321,c),
(27,267,l),
(38,280,o),
(50,283,o),
(60,283,cs),
(77,283,o),
(105,272,o),
(141,236,c)
);
}
);
width = 680;
}
);
unicode = 118613;
},
{
color = 9;
glyphname = u1CF56;
lastChange = "2023-12-07 10:51:23 +0000";
layers = (
{
anchors = (
{
name = bottom;
pos = (102,0);
},
{
name = bottomleft;
pos = (-1,-3);
},
{
name = left;
pos = (-7,282);
},
{
name = right;
pos = (195,233);
},
{
name = top;
pos = (105,491);
}
);
background = {
shapes = (
{
pos = (-288,-454);
ref = u1CF30;
}
);
};
layerId = m01;
shapes = (
{
alignment = -1;
pos = (13,0);
ref = _vert.stem;
},
{
closed = 1;
nodes = (
(158,203,o),
(151,207,o),
(146,205,c),
(109,187,o),
(77,158,o),
(50,127,c),
(57,23,l),
(69,38,o),
(102,69,o),
(147,88,c),
(149,124,o),
(153,161,o),
(161,197,c)
);
}
);
width = 196;
},
{
associatedMasterId = m01;
background = {
shapes = (
{
pos = (-288,-454);
ref = u1CF30;
}
);
};
layerId = "1341BFBF-07E9-4F43-AF05-CA592BEFE79C";
name = "5 Oct 23 at 13:47";
shapes = (
{
closed = 1;
nodes = (
(70,37,o),
(107,66,o),
(157,84,c),
(173,208,l),
(125,191,o),
(84,160,o),
(50,127,c),
(57,23,l)
);
},
{
alignment = -1;
pos = (13,0);
ref = _vert.stem;
}
);
width = 196;
}
);
unicode = 118614;
},
{
color = 9;
glyphname = u1CF5A;
lastChange = "2023-12-06 16:41:17 +0000";
layers = (
{
anchors = (
{
name = bottom;
pos = (196,0);
},
{
name = bottomleft;
pos = (59,0);
},
{
name = left;
pos = (-7,266);
},
{
name = right;
pos = (235,300);
},
{
name = top;
pos = (35,514);
}
);
background = {
shapes = (
{
closed = 1;
nodes = (
(153,353,l),
(59,460,l),
(49,399,l),
(143,292,l)
);
},
{
closed = 1;
nodes = (
(151,287,l),
(115,325,o),
(85,334,o),
(69,334,cs),
(55,334,o),
(44,329,o),
(35,321,c),
(27,267,l),
(38,280,o),
(50,283,o),
(60,283,cs),
(77,283,o),
(105,272,o),
(141,236,c)
);
}
);
};
layerId = m01;
shapes = (
{
pos = (67,0);
ref = u1CF56;
},
{
closed = 1;
nodes = (
(76,359,o),
(134,300,o),
(151,284,c),
(154,348,l),
(134,358,o),
(92,408,o),
(74,446,c),
(50,423,o),
(49,409,o),
(57,393,cs)
);
},
{
closed = 1;
nodes = (
(32,269,o),
(36,266,o),
(39,270,cs),
(46,279,o),
(53,283,o),
(60,283,cs),
(77,283,o),
(105,272,o),
(141,236,c),
(151,287,l),
(115,325,o),
(85,334,o),
(69,334,cs),
(55,334,o),
(44,329,o),
(35,321,c),
(35,308,o),
(32,290,o),
(29,274,c)
);
}
);
width = 270;
},
{
associatedMasterId = m01;
layerId = "CA753DD2-A4E3-482A-9C66-47A002349261";
name = "6 Oct 23 at 15:24";
shapes = (
{
closed = 1;
nodes = (
(153,353,l),
(59,460,l),
(49,399,l),
(143,292,l)
);
},
{
closed = 1;
nodes = (
(151,287,l),
(115,325,o),
(85,334,o),
(69,334,cs),
(55,334,o),
(44,329,o),
(35,321,c),
(27,267,l),
(38,280,o),
(50,283,o),
(60,283,cs),
(77,283,o),
(105,272,o),
(141,236,c)
);
},
{
pos = (67,0);
ref = u1CF56;
}
);
width = 270;
}
);
unicode = 118618;
},
{
color = 9;
glyphname = u1CF5C;
lastChange = "2023-12-07 19:31:06 +0000";
layers = (
{
anchors = (
{
name = bottom;
pos = (86,-50);
},
{
name = bottomleft;
pos = (120,11);
},
{
name = bottomright;
pos = (190,-37);
},
{
name = left;
pos = (0,271);
},
{
name = right;
pos = (266,300);
},
{
name = top;
pos = (71,504);
}
);
layerId = m01;
shapes = (
{
closed = 1;
nodes = (
(258,227,o),
(264,510,o),
(34,504,c),
(33,473,o),
(9,419,o),
(30,419,cs),
(221,418,o),
(212,186,o),
(183,-2,cs),
(181,-15,o),
(196,-14,o),
(205,-8,c)
);
}
);
width = 265;
},
{
associatedMasterId = m01;
layerId = "1E798E85-E7AB-4866-B793-485AEF322500";
name = "6 Oct 23 at 15:26";
shapes = (
{
closed = 1;
nodes = (
(258,227,o),
(264,510,o),
(34,504,c),
(30,410,l),
(221,418,o),
(212,186,o),
(183,-2,cs),
(181,-15,o),
(196,-14,o),
(205,-8,c)
);
}
);
width = 265;
}
);
unicode = 118620;
},
{
color = 9;
glyphname = u1CF5D;
lastChange = "2023-12-06 16:38:38 +0000";
layers = (
{
anchors = (
{
name = bottom;
pos = (129,-36);
},
{
name = bottomleft;
pos = (-1,-63);
},
{
name = left;
pos = (0,178);
},
{
name = right;
pos = (245,181);
},
{
name = top;
pos = (150,310);
}
);
layerId = m01;
shapes = (
{
closed = 1;
nodes = (
(66,144,o),
(87,218,o),
(136,218,cs),
(177,218,o),
(190,163,o),
(175,11,cs),
(174,1,o),
(187,3,o),
(195,7,c),
(232,231,o),
(212,310,o),
(149,310,cs),
(74,310,o),
(50,209,o),
(30,-36,cs),
(29,-44,o),
(42,-44,o),
(51,-39,c)
);
}
);
width = 244;
}
);
unicode = 118621;
},
{
color = 9;
glyphname = u1CF6F;
lastChange = "2023-12-07 10:02:54 +0000";
layers = (
{
anchors = (
{
name = bottom;
pos = (270,77);
},
{
name = bottomleft;
pos = (-1,-29);
},
{
name = left;
pos = (25,256);
},
{
name = top;
pos = (102,513);
}
);
layerId = m01;
shapes = (
{
closed = 1;
nodes = (
(149,2,o),
(213,86,o),
(213,252,cs),
(213,305,o),
(179,342,o),
(136,387,cs),
(97,428,o),
(92,475,o),
(102,513,c),
(93,516,o),
(87,514,o),
(85,506,cs),
(62,391,o),
(71,335,o),
(110,296,cs),
(186,220,o),
(192,213,o),
(192,186,cs),
(192,153,o),
(162,94,o),
(96,94,cs),
(53,94,o),
(50,143,o),
(60,181,c),
(51,184,o),
(45,182,o),
(43,174,cs),
(20,59,o),
(25,2,o),
(84,2,cs)
);
}
);
width = 243;
}
);
unicode = 118639;
},
{
color = 9;
glyphname = u1CF78;
lastChange = "2023-10-18 17:13:13 +0000";
layers = (
{
anchors = (
{
name = bottom;
pos = (291,-23);
},
{
name = bottomleft;
pos = (-1,-63);
},
{
name = top;
pos = (15,500);
}
);
background = {
shapes = (
{
pos = (208,-140);
ref = u1CF35;
},
{
closed = 1;
nodes = (
(308,361,l),
(300,371,l),
(178,449,l),
(159,361,l),
(246,308,l),
(252,299,l),
(371,223,l),
(390,312,l)
);
}
);
};
layerId = m01;
shapes = (
{
alignment = -1;
ref = _vert.stem;
},
{
alignment = -1;
ref = _haczek;
},
{
pos = (-110,-469);
ref = u1CF30;
},
{
pos = (85,-309);
ref = u1CF30;
},
{
pos = (15,0);
ref = _cross;
}
);
width = 600;
}
);
unicode = 118648;
},
{
color = 9;
glyphname = u1CF79;
lastChange = "2023-10-18 17:13:27 +0000";
layers = (
{
anchors = (
{
name = bottom;
pos = (158,29);
},
{
name = bottomleft;
pos = (-1,-63);
},
{
name = top;
pos = (53,514);
}
);
background = {
shapes = (
{
closed = 1;
nodes = (
(228,299,l),
(240,395,o),
(251,491,o),
(255,587,c),
(230,572,l),
(224,473,o),
(214,374,o),
(202,275,c)
);
},
{
closed = 1;
nodes = (
(315,379,l),
(324,455,o),
(331,531,o),
(335,607,c),
(310,592,l),
(305,513,o),
(298,434,o),
(289,355,c)
);
}
);
};
layerId = m01;
shapes = (
{
alignment = -1;
ref = _haczek;
},
{
closed = 1;
nodes = (
(228,299,l),
(240,395,o),
(251,491,o),
(255,582,c),
(239,585,o),
(231,582,o),
(230,572,cs),
(224,473,o),
(214,374,o),
(202,275,c)
);
},
{
closed = 1;
nodes = (
(315,379,l),
(324,455,o),
(331,531,o),
(335,602,c),
(319,605,o),
(311,602,o),
(310,592,c),
(305,513,o),
(298,434,o),
(289,355,c)
);
}
);
width = 600;
}
);
unicode = 118649;
},
{
color = 9;
glyphname = u1CF7C;
lastChange = "2023-10-18 17:13:51 +0000";
layers = (
{
anchors = (
{
name = bottom;
pos = (233,-24);
},
{
name = bottomleft;
pos = (-1,-63);
},
{
name = top;
pos = (81,513);
}
);
background = {
shapes = (
{
alignment = -1;
pos = (169,180);
ref = _haczek;
}
);
};
layerId = m01;
shapes = (
{
closed = 1;
nodes = (
(731,593,o),
(739,593,o),
(740,599,cs),
(745,621,o),
(749,662,o),
(759,688,c),
(739,733,o),
(713,751,o),
(691,751,cs),
(581,751,o),
(399,493,o),
(42,141,c),
(38,105,o),
(26,75,o),
(21,42,c),
(27,36,o),
(38,28,o),
(47,36,cs),
(412,387,o),
(545,588,o),
(640,637,cs),
(654,644,o),
(667,644,o),
(674,643,cs),
(690,641,o),
(708,620,o),
(723,596,c)
);
},
{
pos = (-147,-469);
ref = u1CF30;
},
{
pos = (-18,-379);
ref = u1CF30;
},
{
pos = (225,227);
ref = _cross;
},
{
closed = 1;
nodes = (
(228,299,l),
(240,395,o),
(251,491,o),
(255,582,c),
(239,585,o),
(231,582,o),
(230,572,cs),
(224,473,o),
(214,374,o),
(202,275,c)
);
},
{
closed = 1;
nodes = (
(315,379,l),
(324,455,o),
(331,531,o),
(335,602,c),
(319,605,o),
(311,602,o),
(310,592,c),
(305,513,o),
(298,434,o),
(289,355,c)
);
}
);
width = 809;
}
);
unicode = 118652;
},
{
color = 9;
glyphname = u1CF7E;
lastChange = "2023-12-07 19:55:21 +0000";
layers = (
{
anchors = (
{
name = bottom;
pos = (131,0);
},
{
name = bottomleft;
pos = (-2,0);
},
{
name = bottomright;
pos = (254,21);
},
{
name = centre;
pos = (149,72);
},
{
name = left;
pos = (-11,139);
},
{
name = right;
pos = (361,265);
},
{
name = top;
pos = (98,401);
}
);
layerId = m01;
shapes = (
{
closed = 1;
nodes = (
(335,344,o),
(328,456,o),
(237,456,cs),
(170,456,o),
(139,384,o),
(124,264,cs),
(123,256,o),
(130,256,o),
(138,261,c),
(149,309,o),
(176,334,o),
(211,334,cs),
(274,334,o),
(297,260,o),
(282,87,cs),
(281,77,o),
(290,79,o),
(297,83,c)
);
},
{
alignment = -1;
ref = _steep.rombus;
},
{
alignment = -1;
pos = (127,0);
ref = _steep.rombus;
}
);
width = 329;
}
);
unicode = 118654;
},
{
color = 9;
glyphname = u1CF81;
lastChange = "2023-10-18 17:14:35 +0000";
layers = (
{
anchors = (
{
name = bottom;
pos = (128,-34);
},
{
name = bottomleft;
pos = (-1,-63);
},
{
name = top;
pos = (0,423);
}
);
background = {
shapes = (
{
pos = (62,-183);
ref = u1CF35;
},
{
pos = (-258,-16);
ref = _curve;
}
);
};
layerId = m01;
shapes = (
{
closed = 1;
nodes = (
(74,-15,o),
(86,-15,o),
(86,-8,cs),
(96,160,o),
(117,326,o),
(135,490,c),
(127,490,o),
(112,490,o),
(111,482,cs),
(97,319,o),
(82,154,o),
(63,-11,c)
);
},
{
closed = 1;
nodes = (
(192,372,o),
(186,377,o),
(180,376,cs),
(124,363,o),
(72,328,o),
(31,289,c),
(30,255,o),
(24,225,o),
(21,193,c),
(25,186,o),
(31,181,o),
(36,185,cs),
(77,223,o),
(128,254,o),
(185,266,c),
(186,303,o),
(193,331,o),
(195,368,c)
);
}
);
width = 216;
},
{
associatedMasterId = m01;
layerId = "8DD407EC-2ECD-4BAE-B602-0CFBF9425F47";
name = "6 Oct 23 at 16:35";
shapes = (
{
closed = 1;
nodes = (
(71,-12,o),
(79,-10,o),
(86,-9,c),
(101,159,o),
(117,328,o),
(135,496,c),
(127,492,o),
(119,490,o),
(112,488,c),
(97,319,o),
(82,154,o),
(63,-15,c)
);
},
{
closed = 1;
nodes = (
(65,222,o),
(121,253,o),
(185,263,c),
(196,383,l),
(132,373,o),
(75,343,o),
(31,294,c),
(20,174,l)
);
}
);
width = 216;
}
);
unicode = 118657;
},
{
color = 9;
glyphname = u1CF83;
lastChange = "2023-10-18 17:14:54 +0000";
layers = (
{
anchors = (
{
name = bottom;
pos = (161,-32);
},
{
name = bottomleft;
pos = (24,0);
},
{
name = top;
pos = (31,500);
}
);
background = {
shapes = (
{
closed = 1;
nodes = (
(73,176,o),
(51,298,o),
(91,436,c),
(151,346,o),
(176,223,o),
(135,85,c)
);
}
);
};
layerId = m01;
shapes = (
{
closed = 1;
nodes = (
(84,197,o),
(120,227,o),
(161,245,c),
(170,359,l),
(129,341,o),
(93,311,o),
(65,277,c),
(56,163,l)
);
},
{
closed = 1;
nodes = (
(109,538,o),
(104,538,o),
(101,532,cs),
(28,363,o),
(-9,188,o),
(103,-7,c),
(116,-11,o),
(125,-11,o),
(128,-4,cs),
(200,165,o),
(234,341,o),
(119,536,c)
);
},
{
closed = 1;
nodes = (
(135,89,o),
(133,87,o),
(131,91,cs),
(73,178,o),
(53,296,o),
(89,429,c),
(91,431,o),
(94,432,o),
(95,430,cs),
(151,346,o),
(174,225,o),
(137,91,c)
);
}
);
width = 226;
},
{
associatedMasterId = m01;
layerId = "30FFD84C-D41F-4C83-9DC2-521371145861";
name = "6 Oct 23 at 16:58";
shapes = (
{
closed = 1;
nodes = (
(198,156,o),
(242,337,o),
(109,541,c),
(28,365,o),
(-16,184,o),
(117,-20,c)
);
},
{
closed = 1;
nodes = (
(74,170,o),
(49,298,o),
(93,444,c),
(85,444,l),
(151,351,o),
(178,222,o),
(133,77,c),
(142,76,l)
);
},
{
closed = 1;
nodes = (
(84,197,o),
(120,227,o),
(161,245,c),
(170,359,l),
(129,341,o),
(93,311,o),
(65,277,c),
(56,163,l)
);
}
);
width = 226;
}
);
unicode = 118659;
},
{
color = 9;
glyphname = u1CF84;
lastChange = "2023-10-18 17:15:02 +0000";
layers = (
{
anchors = (
{
name = bottom;
pos = (521,-51);
},
{
name = bottomleft;
pos = (14,0);
},
{
name = top;
pos = (53,337);
}
);
layerId = m01;
shapes = (
{
closed = 1;
nodes = (
(334,168,l),
(357,236,o),
(403,280,o),
(458,280,cs),
(502,280,o),
(548,238,o),
(548,166,cs),
(548,69,o),
(475,37,o),
(450,37,cs),
(434,37,o),
(420,42,o),
(404,43,c),
(399,31,o),
(399,20,o),
(406,16,cs),
(433,3,o),
(454,-6,o),
(475,-6,cs),
(560,-6,o),
(621,86,o),
(621,186,cs),
(621,298,o),
(560,351,o),
(474,351,cs),
(403,351,o),
(354,294,o),
(325,224,c),
(361,251,l),
(328,318,o),
(267,351,o),
(212,351,cs),
(105,351,o),
(29,267,o),
(29,153,cs),
(29,50,o),
(91,-6,o),
(177,-6,cs),
(200,-6,o),
(223,9,o),
(252,22,c),
(259,33,o),
(257,48,o),
(248,48,cs),
(237,48,o),
(229,46,o),
(208,46,cs),
(152,46,o),
(104,108,o),
(104,186,cs),
(104,250,o),
(140,282,o),
(188,282,cs),
(230,282,o),
(271,261,o),
(320,168,c)
);
}
);
width = 654;
}
);
unicode = 118660;
},
{
color = 9;
glyphname = u1CF85;
lastChange = "2023-10-18 17:15:10 +0000";
layers = (
{
anchors = (
{
name = bottom;
pos = (235,-29);
},
{
name = bottomleft;
pos = (18,0);
},
{
name = top;
pos = (53,557);
}
);
layerId = m01;
shapes = (
{
closed = 1;
nodes = (
(217,374,o),
(229,377,o),
(230,386,cs),
(235,419,o),
(247,447,o),
(256,474,c),
(212,502,o),
(165,526,o),
(115,546,c),
(104,547,o),
(92,544,o),
(91,535,cs),
(87,502,o),
(74,474,o),
(65,447,c),
(110,430,o),
(157,406,o),
(206,375,c)
);
},
{
closed = 1;
nodes = (
(206,183,o),
(218,186,o),
(219,195,cs),
(224,228,o),
(236,256,o),
(245,283,c),
(201,311,o),
(154,335,o),
(104,355,c),
(93,356,o),
(81,353,o),
(80,344,cs),
(76,311,o),
(63,283,o),
(54,256,c),
(99,239,o),
(146,215,o),
(195,184,c)
);
},
{
closed = 1;
nodes = (
(195,-9,o),
(207,-6,o),
(208,3,cs),
(213,36,o),
(225,64,o),
(234,91,c),
(190,119,o),
(143,143,o),
(93,163,c),
(82,164,o),
(70,161,o),
(69,152,cs),
(65,119,o),
(52,91,o),
(43,64,c),
(88,47,o),
(135,23,o),
(184,-8,c)
);
}
);
width = 299;
}
);
unicode = 118661;
},
{
color = 9;
glyphname = u1CF93;
lastChange = "2023-12-07 19:52:18 +0000";
layers = (
{
anchors = (
{
name = bottom;
pos = (370,0);
},
{
name = bottomleft;
pos = (-1,-41);
},
{
name = bottomright;
pos = (771,419);
},
{
name = centre;
pos = (389,111);
},
{
name = left;
pos = (64,131);
},
{
name = right;
pos = (806,473);
},
{
name = rightalt;
pos = (576,215);
},
{
name = top;
pos = (156,345);
},
{
name = topright;
pos = (645,545);
}
);
background = {
shapes = (
{
alignment = -1;
pos = (-288,-317);
ref = _curve;
},
{
alignment = -1;
pos = (-243,-60);
ref = _curve;
},
{
alignment = -1;
pos = (200,0);
ref = _haczek;
}
);
};
layerId = m01;
shapes = (
{
closed = 1;
nodes = (
(485,17,l),
(495,157,o),
(515,296,o),
(535,435,c),
(500,332,l),
(484,223,o),
(466,112,o),
(460,2,c)
);
},
{
alignment = -1;
pos = (-288,-317);
ref = _curve;
},
{
alignment = -1;
pos = (-243,-60);
ref = _curve;
},
{
alignment = -1;
pos = (200,0);
ref = _haczek;
}
);
width = 856;
}
);
unicode = 118675;
},
{
color = 9;
glyphname = u1CF9A;
lastChange = "2023-10-18 17:19:00 +0000";
layers = (
{
anchors = (
{
name = bottom;
pos = (320,13);
},
{
name = bottomleft;
pos = (-1,-41);
},
{
name = top;
pos = (76,353);
}
);
background = {
shapes = (
{
closed = 1;
nodes = (
(458,299,l),
(470,395,o),
(481,491,o),
(485,587,c),
(460,572,l),
(454,473,o),
(444,374,o),
(432,275,c)
);
}
);
};
layerId = m01;
shapes = (
{
alignment = -1;
pos = (-288,-317);
ref = _curve;
},
{
alignment = -1;
pos = (-233,-60);
ref = _curve;
},
{
alignment = -1;
pos = (190,0);
ref = _haczek;
},
{
closed = 1;
nodes = (
(465,359,l),
(474,435,o),
(481,511,o),
(485,582,c),
(469,585,o),
(461,582,o),
(460,572,cs),
(455,493,o),
(448,414,o),
(439,335,c)
);
}
);
width = 816;
}
);
unicode = 118682;
},
{
color = 9;
glyphname = u1CF9B;
lastChange = "2023-10-18 17:19:18 +0000";
layers = (
{
anchors = (
{
name = bottom;
pos = (321,12);
},
{
name = bottomleft;
pos = (-1,-41);
},
{
name = top;
pos = (76,353);
}
);
background = {
shapes = (
{
alignment = -1;
pos = (-223,-60);
ref = _curve;
},
{
alignment = -1;
pos = (200,0);
ref = _haczek;
}
);
};
layerId = m01;
shapes = (
{
closed = 1;
nodes = (
(428,299,l),
(440,395,o),
(451,491,o),
(455,582,c),
(439,585,o),
(431,582,o),
(430,572,cs),
(424,473,o),
(414,374,o),
(402,275,c)
);
},
{
alignment = -1;
pos = (-288,-317);
ref = _curve;
},
{
closed = 1;
nodes = (
(515,379,l),
(524,455,o),
(531,531,o),
(535,602,c),
(519,605,o),
(511,602,o),
(510,592,cs),
(505,513,o),
(498,434,o),
(489,355,c)
);
},
{
alignment = -1;
pos = (-233,-60);
ref = _curve;
},
{
alignment = -1;
pos = (190,0);
ref = _haczek;
}
);
width = 816;
}
);
unicode = 118683;
},
{
color = 9;
glyphname = u1CF9E;
lastChange = "2023-10-18 17:19:39 +0000";
layers = (
{
anchors = (
{
name = bottom;
pos = (321,12);
},
{
name = bottomleft;
pos = (-1,-41);
},
{
name = top;
pos = (76,353);
}
);
background = {
shapes = (
{
closed = 1;
nodes = (
(428,299,l),
(440,395,o),
(451,491,o),
(455,587,c),
(430,572,l),
(424,473,o),
(414,374,o),
(402,275,c)
);
},
{
closed = 0;
nodes = (
(510,592,l),
(505,513,o),
(498,434,o),
(489,355,c),
(515,379,l)
);
}
);
};
layerId = m01;
shapes = (
{
alignment = -1;
pos = (-288,-317);
ref = _curve;
},
{
alignment = -1;
pos = (-223,-60);
ref = _curve;
},
{
pos = (425,227);
ref = _cross;
},
{
closed = 1;
nodes = (
(930,593,o),
(938,593,o),
(939,599,cs),
(944,621,o),
(948,662,o),
(958,688,c),
(938,733,o),
(912,751,o),
(890,751,cs),
(780,751,o),
(598,493,o),
(241,141,c),
(237,105,o),
(225,75,o),
(220,42,c),
(226,36,o),
(237,28,o),
(246,36,cs),
(611,387,o),
(744,588,o),
(839,637,cs),
(853,644,o),
(866,644,o),
(873,643,cs),
(889,641,o),
(907,620,o),
(922,596,c)
);
},
{
closed = 1;
nodes = (
(428,299,l),
(440,395,o),
(451,491,o),
(455,582,c),
(439,585,o),
(431,582,o),
(430,572,cs),
(424,473,o),
(414,374,o),
(402,275,c)
);
},
{
closed = 1;
nodes = (
(515,379,l),
(524,455,o),
(531,531,o),
(535,602,c),
(519,605,o),
(511,602,o),
(510,592,cs),
(505,513,o),
(498,434,o),
(489,355,c)
);
}
);
width = 1009;
}
);
unicode = 118686;
},
{
color = 9;
glyphname = u1CFA1;
lastChange = "2023-10-18 17:20:31 +0000";
layers = (
{
anchors = (
{
name = bottom;
pos = (321,12);
},
{
name = bottomleft;
pos = (-1,-41);
},
{
name = top;
pos = (206,401);
}
);
background = {
shapes = (
{
closed = 1;
nodes = (
(540,509,o),
(642,588,o),
(687,588,cs),
(707,588,o),
(738,554,o),
(751,518,c),
(776,632,l),
(756,697,o),
(730,715,o),
(708,715,cs),
(653,715,o),
(512,593,o),
(295,364,c),
(272,223,l)
);
}
);
};
layerId = m01;
shapes = (
{
alignment = -1;
pos = (-10,-90);
ref = _arch2;
},
{
alignment = -1;
pos = (168,2);
ref = _steep.rombus;
},
{
alignment = -1;
pos = (50,200);
ref = _steep.rombus;
},
{
closed = 1;
nodes = (
(753,538,o),
(761,536,o),
(762,544,cs),
(766,566,o),
(771,607,o),
(780,633,c),
(760,668,o),
(733,690,o),
(720,693,cs),
(711,695,o),
(689,697,o),
(674,690,cs),
(581,648,o),
(463,504,o),
(297,361,c),
(293,325,o),
(281,295,o),
(276,262,c),
(283,254,o),
(294,249,o),
(301,256,cs),
(464,406,o),
(584,537,o),
(662,582,cs),
(676,590,o),
(689,589,o),
(696,588,cs),
(712,586,o),
(730,567,o),
(745,541,c)
);
}
);
width = 600;
}
);
unicode = 118689;
},
{
color = 9;
glyphname = u1CFAF;
lastChange = "2023-12-07 17:50:22 +0000";
layers = (
{
anchors = (
{
name = bottom;
pos = (96,0);
},
{
name = bottomleft;
pos = (-1,-41);
},
{
name = top;
pos = (105,491);
}
);
layerId = m01;
shapes = (
{
ref = u1CF56;
},
{
closed = 1;
nodes = (
(692,454,o),
(700,452,o),
(701,460,cs),
(705,482,o),
(710,523,o),
(719,549,c),
(699,584,o),
(672,606,o),
(659,609,cs),
(650,611,o),
(628,613,o),
(613,606,cs),
(520,565,o),
(404,414,o),
(239,267,c),
(235,231,o),
(223,201,o),
(218,168,c),
(225,160,o),
(236,155,o),
(243,162,cs),
(407,314,o),
(523,454,o),
(601,498,cs),
(615,506,o),
(628,505,o),
(635,504,cs),
(651,502,o),
(669,483,o),
(684,457,c)
);
}
);
width = 751;
}
);
unicode = 118703;
},
{
color = 9;
glyphname = u1CFB0;
lastChange = "2023-10-18 17:24:55 +0000";
layers = (
{
anchors = (
{
name = bottom;
pos = (96,0);
},
{
name = bottomleft;
pos = (-1,-41);
},
{
name = top;
pos = (258,417);
}
);
background = {
shapes = (
{
closed = 1;
nodes = (
(302,411,o),
(404,490,o),
(449,490,cs),
(469,490,o),
(500,456,o),
(513,420,c),
(538,534,l),
(518,599,o),
(492,617,o),
(470,617,cs),
(415,617,o),
(274,495,o),
(57,266,c),
(34,125,l)
);
}
);
};
guides = (
{
pos = (0,760);
}
);
layerId = m01;
shapes = (
{
ref = u1CF56;
},
{
closed = 1;
nodes = (
(940,624,o),
(948,622,o),
(949,630,cs),
(953,652,o),
(958,693,o),
(967,719,c),
(947,754,o),
(920,776,o),
(907,779,cs),
(898,781,o),
(876,783,o),
(861,776,cs),
(768,735,o),
(652,584,o),
(487,437,c),
(483,401,o),
(471,371,o),
(466,338,c),
(473,330,o),
(484,325,o),
(491,332,cs),
(655,484,o),
(771,624,o),
(849,668,cs),
(863,676,o),
(876,675,o),
(883,674,cs),
(899,672,o),
(917,653,o),
(932,627,c)
);
},
{
pos = (-160,-349);
ref = u1CF30;
},
{
pos = (-31,-259);
ref = u1CF30;
}
);
width = 568;
}
);
unicode = 118704;
},
{
color = 9;
glyphname = u1CFB2;
lastChange = "2023-10-18 17:26:06 +0000";
layers = (
{
anchors = (
{
name = bottom;
pos = (96,0);
},
{
name = bottomleft;
pos = (-1,-41);
},
{
name = top;
pos = (239,500);
}
);
background = {
shapes = (
{
closed = 1;
nodes = (
(762,571,o),
(864,650,o),
(909,650,cs),
(929,650,o),
(960,616,o),
(973,580,c),
(998,694,l),
(978,759,o),
(952,777,o),
(930,777,cs),
(875,777,o),
(734,655,o),
(517,426,c),
(494,285,l)
);
},
{
closed = 1;
nodes = (
(529,388,l),
(544,474,o),
(561,561,o),
(567,647,c),
(542,632,l),
(532,517,o),
(513,401,o),
(494,285,c)
);
}
);
};
layerId = m01;
shapes = (
{
ref = u1CF58;
},
{
closed = 1;
nodes = (
(531,424,l),
(540,511,o),
(546,575,o),
(549,640,c),
(533,643,o),
(525,640,o),
(524,630,cs),
(517,519,o),
(507,399,o),
(492,317,c),
(499,309,o),
(510,304,o),
(517,311,cs),
(667,464,o),
(789,596,o),
(880,647,cs),
(894,655,o),
(907,654,o),
(914,653,cs),
(930,651,o),
(948,632,o),
(963,606,c),
(971,603,o),
(979,601,o),
(980,609,cs),
(984,631,o),
(989,672,o),
(998,698,c),
(978,733,o),
(951,755,o),
(938,758,cs),
(929,760,o),
(907,762,o),
(892,755,cs),
(787,709,o),
(679,611,o),
(519,428,c)
);
}
);
width = 986;
}
);
unicode = 118706;
},
{
color = 9;
glyphname = u1CFB3;
lastChange = "2023-10-18 17:26:10 +0000";
layers = (
{
anchors = (
{
name = bottom;
pos = (96,0);
},
{
name = bottomleft;
pos = (-1,-41);
},
{
name = top;
pos = (243,459);
}
);
background = {
shapes = (
{
closed = 1;
nodes = (
(762,571,o),
(864,650,o),
(909,650,cs),
(929,650,o),
(960,616,o),
(973,580,c),
(998,694,l),
(978,759,o),
(952,777,o),
(930,777,cs),
(875,777,o),
(734,655,o),
(517,426,c),
(494,285,l)
);
}
);
};
layerId = m01;
shapes = (
{
ref = u1CF58;
},
{
pos = (417,213);
ref = _cross;
},
{
closed = 1;
nodes = (
(493,321,o),
(502,316,o),
(505,319,cs),
(648,450,o),
(784,590,o),
(878,662,cs),
(891,672,o),
(905,669,o),
(912,668,cs),
(928,666,o),
(946,647,o),
(961,621,c),
(969,618,o),
(977,616,o),
(978,624,cs),
(982,646,o),
(987,687,o),
(996,713,c),
(976,748,o),
(949,770,o),
(936,773,cs),
(927,775,o),
(905,779,o),
(890,770,cs),
(780,703,o),
(648,555,o),
(500,429,c),
(502,410,o),
(497,360,o),
(491,325,c)
);
}
);
width = 1028;
}
);
unicode = 118707;
},
{
color = 9;
glyphname = u1CFB8;
lastChange = "2023-10-18 17:27:14 +0000";
layers = (
{
anchors = (
{
name = bottom;
pos = (233,-49);
},
{
name = bottomleft;
pos = (-1,-46);
},
{
name = top;
pos = (149,443);
}
);
background = {
shapes = (
{
closed = 1;
nodes = (
(316,364,l),
(325,451,o),
(331,515,o),
(334,580,c),
(318,583,o),
(310,580,o),
(309,570,cs),
(302,459,o),
(292,339,o),
(277,257,c),
(284,249,o),
(295,244,o),
(302,251,cs),
(452,404,o),
(574,536,o),
(665,587,cs),
(679,595,o),
(692,594,o),
(699,593,cs),
(715,591,o),
(733,572,o),
(748,546,c),
(756,543,o),
(764,541,o),
(765,549,cs),
(769,571,o),
(774,612,o),
(783,638,c),
(763,673,o),
(736,695,o),
(723,698,cs),
(714,700,o),
(692,702,o),
(677,695,cs),
(572,649,o),
(464,551,o),
(304,368,c)
);
}
);
};
layerId = m01;
shapes = (
{
alignment = -1;
pos = (-10,-90);
ref = _arch2;
},
{
alignment = -1;
pos = (168,2);
ref = _steep.rombus;
},
{
alignment = -1;
pos = (50,200);
ref = _steep.rombus;
},
{
closed = 1;
nodes = (
(316,363,l),
(325,452,o),
(331,518,o),
(334,585,c),
(318,588,o),
(310,585,o),
(309,575,cs),
(302,464,o),
(292,344,o),
(277,262,c),
(284,254,o),
(295,249,o),
(302,256,cs),
(465,406,o),
(585,537,o),
(663,582,cs),
(677,590,o),
(690,589,o),
(697,588,cs),
(713,586,o),
(731,567,o),
(746,541,c),
(754,538,o),
(762,536,o),
(763,544,cs),
(767,566,o),
(772,607,o),
(781,633,c),
(761,668,o),
(734,690,o),
(721,693,cs),
(712,695,o),
(690,697,o),
(675,690,cs),
(582,648,o),
(464,500,o),
(304,367,c)
);
}
);
width = 806;
}
);
unicode = 118712;
},
{
color = 9;
glyphname = u1CFBB;
lastChange = "2023-10-18 17:27:41 +0000";
layers = (
{
anchors = (
{
name = bottom;
pos = (404,-29);
},
{
name = bottomleft;
pos = (-1,-80);
},
{
name = top;
pos = (133,381);
}
);
background = {
shapes = (
{
closed = 1;
nodes = (
(467,326,l),
(482,412,o),
(499,499,o),
(505,585,c),
(480,570,l),
(470,455,o),
(451,339,o),
(432,223,c)
);
}
);
};
layerId = m01;
shapes = (
{
alignment = -1;
pos = (-19,-118);
ref = _arch2;
},
{
pos = (160,0);
ref = u1CFA1;
}
);
width = 966;
}
);
unicode = 118715;
},
{
color = 9;
glyphname = u1CFBF;
lastChange = "2023-10-18 17:28:01 +0000";
layers = (
{
anchors = (
{
name = bottom;
pos = (372,-29);
},
{
name = bottomleft;
pos = (-1,-80);
},
{
name = top;
pos = (89,257);
}
);
layerId = m01;
shapes = (
{
closed = 1;
nodes = (
(64,-1,o),
(137,2,o),
(275,121,cs),
(416,243,o),
(461,239,o),
(483,201,cs),
(496,178,o),
(490,145,o),
(458,116,c),
(457,107,o),
(461,102,o),
(468,106,cs),
(559,158,o),
(578,221,o),
(557,257,cs),
(529,306,o),
(456,303,o),
(318,184,cs),
(177,62,o),
(132,66,o),
(110,104,cs),
(97,127,o),
(103,160,o),
(135,189,c),
(136,198,o),
(132,203,o),
(125,199,cs),
(34,147,o),
(15,84,o),
(36,48,cs)
);
}
);
width = 600;
}
);
unicode = 118719;
},
{
color = 9;
glyphname = u1CFC0;
lastChange = "2023-10-18 17:28:10 +0000";
layers = (
{
anchors = (
{
name = bottom;
pos = (523,-29);
},
{
name = bottomleft;
pos = (-1,21);
},
{
name = top;
pos = (17,261);
}
);
layerId = m01;
shapes = (
{
closed = 1;
nodes = (
(548,59,o),
(555,57,o),
(562,57,cs),
(582,58,o),
(608,65,o),
(621,73,c),
(566,246,o),
(449,316,o),
(308,316,cs),
(217,316,o),
(124,286,o),
(44,233,c),
(40,226,o),
(40,216,o),
(43,210,cs),
(47,204,o),
(67,178,o),
(77,174,c),
(156,235,o),
(231,261,o),
(309,261,cs),
(422,261,o),
(499,205,o),
(540,65,c)
);
}
);
width = 640;
}
);
unicode = 118720;
},
{
color = 9;
glyphname = u1CFC1;
lastChange = "2023-10-18 17:28:41 +0000";
layers = (
{
anchors = (
{
name = bottom;
pos = (211,-32);
},
{
name = bottomleft;
pos = (74,0);
},
{
name = top;
pos = (81,500);
}
);
background = {
shapes = (
{
closed = 1;
nodes = (
(236,156,o),
(280,337,o),
(147,541,c),
(66,365,o),
(22,184,o),
(155,-20,c)
);
},
{
closed = 1;
nodes = (
(112,170,o),
(87,298,o),
(131,444,c),
(123,444,l),
(189,351,o),
(216,222,o),
(171,77,c),
(180,76,l)
);
}
);
};
layerId = m01;
shapes = (
{
closed = 1;
nodes = (
(36,191,o),
(43,188,o),
(46,193,cs),
(57,208,o),
(72,220,o),
(94,233,c),
(84,328,l),
(65,315,o),
(51,303,o),
(39,288,c),
(39,258,o),
(36,227,o),
(32,197,c)
);
},
{
closed = 1;
nodes = (
(147,538,o),
(142,538,o),
(139,532,cs),
(66,363,o),
(29,188,o),
(141,-7,c),
(154,-11,o),
(163,-11,o),
(166,-4,cs),
(238,165,o),
(272,341,o),
(157,536,c)
);
},
{
closed = 1;
nodes = (
(173,89,o),
(171,87,o),
(169,91,cs),
(111,178,o),
(91,296,o),
(127,429,c),
(129,431,o),
(132,432,o),
(133,430,cs),
(189,346,o),
(212,225,o),
(175,91,c)
);
},
{
closed = 1;
nodes = (
(266,323,o),
(259,326,o),
(256,321,cs),
(245,306,o),
(230,294,o),
(208,281,c),
(218,186,l),
(237,199,o),
(251,211,o),
(263,226,c),
(263,256,o),
(266,287,o),
(270,317,c)
);
}
);
width = 302;
}
);
unicode = 118721;
},
{
color = 9;
glyphname = u1CFC2;
lastChange = "2023-12-07 19:02:56 +0000";
layers = (
{
anchors = (
{
name = bottom;
pos = (161,-60);
},
{
name = bottomleft;
pos = (-1,-24);
},
{
name = top;
pos = (43,500);
}
);
background = {
shapes = (
{
closed = 1;
nodes = (
(94,493,o),
(86,491,o),
(79,490,c),
(64,322,o),
(48,153,o),
(30,-15,c),
(43,-15,o),
(52,-13,o),
(53,-7,cs),
(68,162,o),
(83,327,o),
(102,496,c)
);
},
{
closed = 1;
nodes = (
(267,493,o),
(259,491,o),
(252,490,c),
(237,322,o),
(221,153,o),
(203,-15,c),
(214,-15,o),
(225,-13,o),
(226,-7,cs),
(241,162,o),
(256,327,o),
(275,496,c)
);
}
);
};
layerId = m01;
shapes = (
{
closed = 1;
nodes = (
(214,-15,o),
(225,-13,o),
(226,-7,cs),
(241,159,o),
(257,328,o),
(275,496,c),
(262,496,o),
(253,494,o),
(252,488,cs),
(237,319,o),
(222,154,o),
(203,-15,c)
);
},
{
closed = 1;
nodes = (
(233,148,l),
(182,178,o),
(135,210,o),
(69,231,c),
(51,137,l),
(109,123,o),
(161,88,o),
(214,53,c)
);
},
{
closed = 1;
nodes = (
(43,-15,o),
(52,-13,o),
(53,-7,cs),
(68,159,o),
(84,328,o),
(102,496,c),
(91,496,o),
(80,494,o),
(79,488,cs),
(64,319,o),
(49,154,o),
(30,-15,c)
);
},
{
closed = 1;
nodes = (
(255,345,l),
(206,375,o),
(159,407,o),
(91,428,c),
(73,334,l),
(131,320,o),
(183,285,o),
(236,250,c)
);
}
);
width = 265;
}
);
unicode = 118722;
},
{
color = 9;
glyphname = u1CF24.alt;
lastChange = "2023-12-07 18:00:07 +0000";
layers = (
{
anchors = (
{
name = _rightalt;
pos = (-296,640);
}
);
background = {
shapes = (
{
closed = 1;
nodes = (
(-204,155,o),
(-245,122,o),
(-245,93,cs),
(-245,71,o),
(-227,61,o),
(-204,61,cs),
(-132,61,o),
(-99,151,o),
(-92,225,c),
(-93,236,o),
(-116,234,o),
(-130,234,c),
(-133,191,o),
(-135,162,o),
(-155,125,c),
(-132,126,l),
(-134,150,o),
(-153,155,o),
(-168,155,cs)
);
},
{
closed = 1;
nodes = (
(-170,135,o),
(-159,129,o),
(-159,116,cs),
(-159,100,o),
(-175,83,o),
(-192,83,cs),
(-199,83,o),
(-209,89,o),
(-209,102,cs),
(-209,118,o),
(-194,135,o),
(-177,135,cs)
);
}
);
};
layerId = m01;
shapes = (
{
closed = 1;
nodes = (
(-134,494,o),
(-140,480,o),
(-146,450,cs),
(-152,418,o),
(-136,397,o),
(-103,397,cs),
(-65,397,o),
(-24,428,o),
(-24,459,cs),
(-24,481,o),
(-42,492,o),
(-63,492,cs),
(-81,492,o),
(-102,483,o),
(-120,458,c),
(-108,463,l),
(-102,485,o),
(-92,517,o),
(-87,547,c),
(-87,556,o),
(-102,561,o),
(-108,561,cs),
(-160,561,o),
(-177,527,o),
(-191,484,cs),
(-198,466,o),
(-207,432,o),
(-223,432,cs),
(-230,432,o),
(-234,441,o),
(-243,441,cs),
(-252,441,o),
(-263,425,o),
(-262,414,cs),
(-262,408,o),
(-249,398,o),
(-239,398,cs),
(-205,398,o),
(-188,441,o),
(-177,471,cs),
(-162,514,o),
(-149,537,o),
(-134,537,cs),
(-131,537,o),
(-128,536,o),
(-128,531,c)
);
},
{
closed = 1;
nodes = (
(-104,416,o),
(-112,423,o),
(-112,436,cs),
(-112,452,o),
(-96,470,o),
(-78,470,cs),
(-67,470,o),
(-59,463,o),
(-59,450,cs),
(-59,434,o),
(-75,416,o),
(-93,416,cs)
);
}
);
width = 0;
},
{
associatedMasterId = m01;
background = {
shapes = (
{
closed = 1;
nodes = (
(321,84,o),
(343,47,o),
(383,39,c),
(385,39,o),
(387,38,o),
(388,38,c),
(397,38,o),
(401,43,o),
(401,48,cs),
(401,53,o),
(398,57,o),
(392,60,cs),
(376,68,o),
(354,97,o),
(354,149,cs),
(354,202,o),
(401,259,o),
(440,290,cs),
(453,300,o),
(493,332,o),
(508,332,cs),
(527,332,o),
(531,316,o),
(531,302,cs),
(531,266,o),
(503,220,o),
(483,162,c),
(481,155,o),
(480,149,o),
(480,143,cs),
(480,119,o),
(494,103,o),
(519,103,cs),
(552,103,o),
(578,123,o),
(588,160,c),
(590,166,o),
(590,172,o),
(590,177,cs),
(590,208,o),
(563,217,o),
(544,217,cs),
(539,217,o),
(534,216,o),
(531,215,c),
(531,215,o),
(563,282,o),
(563,311,cs),
(563,341,o),
(558,359,o),
(525,359,cs),
(452,359,o),
(321,219,o),
(321,138,cs)
);
},
{
closed = 1;
nodes = (
(561,154,o),
(556,128,o),
(532,128,cs),
(518,128,o),
(507,141,o),
(507,153,c),
(507,155,o),
(507,157,o),
(508,159,c),
(513,174,o),
(518,184,o),
(521,190,cs),
(523,194,o),
(528,196,o),
(534,196,cs),
(546,196,o),
(561,188,o),
(561,170,cs)
);
},
{
closed = 1;
nodes = (
(321,84,o),
(343,47,o),
(383,39,c),
(385,39,o),
(387,38,o),
(388,38,c),
(397,38,o),
(401,43,o),
(401,48,cs),
(401,53,o),
(398,57,o),
(392,60,cs),
(376,68,o),
(354,97,o),
(354,149,cs),
(354,202,o),
(401,259,o),
(440,290,cs),
(453,300,o),
(493,332,o),
(508,332,cs),
(527,332,o),
(531,316,o),
(531,302,cs),
(531,266,o),
(503,220,o),
(483,162,c),
(481,155,o),
(480,149,o),
(480,143,cs),
(480,119,o),
(494,103,o),
(519,103,cs),
(552,103,o),
(578,123,o),
(588,160,c),
(590,166,o),
(590,172,o),
(590,177,cs),
(590,208,o),
(563,217,o),
(544,217,cs),
(539,217,o),
(534,216,o),
(531,215,c),
(531,215,o),
(563,282,o),
(563,311,cs),
(563,341,o),
(558,359,o),
(525,359,cs),
(452,359,o),
(321,219,o),
(321,138,cs)
);
},
{
closed = 1;
nodes = (
(561,154,o),
(556,128,o),
(532,128,cs),
(518,128,o),
(507,141,o),
(507,153,c),
(507,155,o),
(507,157,o),
(508,159,c),
(513,174,o),
(518,184,o),
(521,190,cs),
(523,194,o),
(528,196,o),
(534,196,cs),
(546,196,o),
(561,188,o),
(561,170,cs)
);
}
);
};
layerId = "43EEB8A0-A3A7-4CA2-B678-376E484DACFD";
name = "18 Jul 23 at 11:36";
shapes = (
{
closed = 1;
nodes = (
(558,271,o),
(558,324,cs),
(558,343,o),
(547,359,o),
(517,359,cs),
(443,359,o),
(317,284,o),
(317,135,cs),
(317,81,o),
(343,39,o),
(386,39,cs),
(400,39,o),
(406,48,o),
(406,66,c),
(371,66,o),
(356,104,o),
(356,152,cs),
(356,273,o),
(428,330,o),
(494,330,cs),
(504,330,o),
(515,331,o),
(515,311,cs),
(515,263,o),
(480,209,o),
(479,149,cs),
(479,112,o),
(504,90,o),
(534,90,cs),
(579,90,o),
(620,117,o),
(620,164,cs),
(620,193,o),
(603,219,o),
(564,219,cs),
(546,219,o),
(524,211,o),
(508,188,c),
(514,138,l),
(520,189,o),
(540,205,o),
(556,205,cs),
(576,205,o),
(580,184,o),
(580,168,cs),
(580,142,o),
(565,106,o),
(542,106,cs),
(520,106,o),
(515,118,o),
(515,136,cs),
(515,193,o)
);
}
);
width = 600;
},
{
associatedMasterId = m01;
background = {
shapes = (
{
closed = 1;
nodes = (
(395,39,o),
(401,47,o),
(401,66,c),
(366,66,o),
(351,103,o),
(351,155,cs),
(351,272,o),
(426,330,o),
(488,330,cs),
(506,330,o),
(510,325,o),
(510,313,cs),
(510,276,o),
(469,216,o),
(472,155,cs),
(474,115,o),
(494,90,o),
(540,90,cs),
(578,90,o),
(610,107,o),
(626,148,cs),
(645,199,o),
(626,251,o),
(565,251,cs),
(540,251,o),
(513,242,o),
(498,224,c),
(517,205,l),
(517,241,o),
(551,290,o),
(551,325,cs),
(551,343,o),
(542,359,o),
(510,359,cs),
(438,359,o),
(312,279,o),
(312,140,cs),
(312,65,o),
(349,39,o),
(379,39,cs)
);
},
{
closed = 1;
nodes = (
(502,107,o),
(501,157,o),
(514,193,cs),
(523,218,o),
(541,235,o),
(563,235,cs),
(600,235,o),
(601,186,o),
(588,151,cs),
(578,124,o),
(559,107,o),
(538,107,cs)
);
}
);
};
layerId = "E8198A1A-04CF-4E4E-BB89-BDD5DE5F2195";
name = "15 Aug 23 at 18:43";
shapes = (
{
closed = 1;
nodes = (
(395,39,o),
(401,47,o),
(401,66,c),
(366,66,o),
(351,103,o),
(351,155,cs),
(351,272,o),
(426,330,o),
(488,330,cs),
(506,330,o),
(510,325,o),
(510,313,cs),
(510,276,o),
(469,216,o),
(472,155,cs),
(474,115,o),
(494,90,o),
(540,90,cs),
(578,90,o),
(610,107,o),
(626,148,cs),
(645,199,o),
(626,251,o),
(565,251,cs),
(540,251,o),
(513,242,o),
(498,224,c),
(517,205,l),
(517,241,o),
(551,290,o),
(551,325,cs),
(551,343,o),
(542,359,o),
(510,359,cs),
(438,359,o),
(312,279,o),
(312,140,cs),
(312,65,o),
(349,39,o),
(379,39,cs)
);
},
{
closed = 1;
nodes = (
(502,107,o),
(501,157,o),
(514,193,cs),
(523,218,o),
(541,235,o),
(563,235,cs),
(600,235,o),
(601,186,o),
(588,151,cs),
(578,124,o),
(559,107,o),
(538,107,cs)
);
}
);
width = 600;
}
);
},
{
export = 0;
glyphname = _arch2;
lastChange = "2023-10-18 17:29:12 +0000";
layers = (
{
anchors = (
{
name = bottom;
pos = (173,-50);
},
{
name = bottomleft;
pos = (1,0);
},
{
name = top;
pos = (30,307);
}
);
layerId = m01;
shapes = (
{
closed = 1;
nodes = (
(173,183,o),
(169,271,o),
(109,271,cs),
(63,271,o),
(40,206,o),
(30,90,cs),
(29,82,o),
(38,82,o),
(48,87,c),
(55,146,o),
(69,176,o),
(97,176,cs),
(129,176,o),
(144,118,o),
(132,-19,cs),
(131,-29,o),
(142,-27,o),
(150,-23,c)
);
}
);
width = 193;
}
);
},
{
export = 0;
glyphname = _circlefordotted;
lastChange = "2023-08-15 16:20:37 +0000";
layers = (
{
layerId = m01;
shapes = (
{
closed = 1;
nodes = (
(326,424,o),
(343,440,o),
(343,462,cs),
(343,484,o),
(326,500,o),
(305,500,cs),
(284,500,o),
(267,484,o),
(267,462,cs),
(267,440,o),
(284,424,o),
(305,424,cs)
);
}
);
width = 600;
}
);
},
{
export = 0;
glyphname = _cmark;
lastChange = "2023-08-15 20:19:22 +0000";
layers = (
{
background = {
shapes = (
{
closed = 1;
nodes = (
(350,557,o),
(306,532,o),
(306,480,cs),
(306,426,o),
(348,402,o),
(389,402,cs),
(416,402,o),
(442,413,o),
(460,430,c),
(440,451,l),
(426,431,o),
(410,420,o),
(392,420,cs),
(367,420,o),
(344,441,o),
(344,479,cs),
(344,513,o),
(364,539,o),
(392,539,cs),
(409,539,o),
(424,530,o),
(435,512,c),
(455,533,l),
(438,550,o),
(416,557,o),
(389,557,cs)
);
}
);
};
layerId = m01;
shapes = (
{
closed = 1;
nodes = (
(146,519,l),
(152,524,o),
(155,539,o),
(155,545,cs),
(154,552,o),
(136,560,o),
(122,560,cs),
(62,560,o),
(31,495,o),
(34,445,cs),
(35,419,o),
(53,397,o),
(85,397,cs),
(105,397,o),
(130,412,o),
(147,439,c),
(148,441,o),
(141,449,o),
(135,451,c),
(124,435,o),
(108,420,o),
(91,420,cs),
(79,420,o),
(71,432,o),
(71,450,cs),
(69,487,o),
(79,539,o),
(108,539,cs),
(114,539,o),
(131,531,o),
(142,520,c)
);
}
);
width = 600;
},
{
associatedMasterId = m01;
layerId = "6E5C9794-254C-4B2D-94C7-33090DF9C6EC";
name = "18 Jul 23 at 12:33";
shapes = (
{
closed = 1;
nodes = (
(350,557,o),
(306,532,o),
(306,480,cs),
(306,426,o),
(348,402,o),
(389,402,cs),
(416,402,o),
(442,413,o),
(460,430,c),
(440,451,l),
(426,431,o),
(410,420,o),
(392,420,cs),
(367,420,o),
(344,441,o),
(344,479,cs),
(344,513,o),
(364,539,o),
(392,539,cs),
(409,539,o),
(424,530,o),
(435,512,c),
(455,533,l),
(438,550,o),
(416,557,o),
(389,557,cs)
);
}
);
width = 600;
},
{
associatedMasterId = m01;
background = {
shapes = (
{
closed = 1;
nodes = (
(350,557,o),
(306,532,o),
(306,480,cs),
(306,426,o),
(348,402,o),
(389,402,cs),
(416,402,o),
(442,413,o),
(460,430,c),
(440,451,l),
(426,431,o),
(410,420,o),
(392,420,cs),
(367,420,o),
(344,441,o),
(344,479,cs),
(344,513,o),
(364,539,o),
(392,539,cs),
(409,539,o),
(424,530,o),
(435,512,c),
(455,533,l),
(438,550,o),
(416,557,o),
(389,557,cs)
);
}
);
};
layerId = "60D21DD8-9FF5-4577-9A01-A3F557ACA5A1";
name = "15 Aug 23 at 21:16";
shapes = (
{
closed = 1;
nodes = (
(416,399,o),
(442,409,o),
(460,435,c),
(428,453,l),
(423,433,o),
(411,414,o),
(392,414,cs),
(365,414,o),
(344,445,o),
(344,487,cs),
(344,520,o),
(356,545,o),
(381,545,cs),
(398,545,o),
(414,534,o),
(426,512,c),
(452,540,l),
(435,554,o),
(414,560,o),
(390,560,cs),
(343,560,o),
(304,529,o),
(304,477,cs),
(304,428,o),
(339,399,o),
(384,399,cs)
);
},
{
closed = 1;
nodes = (
(144,519,l),
(150,524,o),
(154,539,o),
(154,545,cs),
(154,552,o),
(136,560,o),
(122,560,cs),
(62,560,o),
(28,495,o),
(28,445,cs),
(28,419,o),
(44,397,o),
(76,397,cs),
(99,397,o),
(120,412,o),
(144,439,c),
(145,441,o),
(141,445,o),
(135,447,c),
(118,431,o),
(101,418,o),
(84,418,cs),
(72,418,o),
(65,432,o),
(65,450,cs),
(65,487,o),
(78,539,o),
(107,539,cs),
(113,539,o),
(129,531,o),
(140,520,c)
);
}
);
width = 600;
}
);
},
{
color = 9;
export = 0;
glyphname = _comma;
lastChange = "2023-10-17 11:16:45 +0000";
layers = (
{
layerId = m01;
shapes = (
{
closed = 1;
nodes = (
(21,2,o),
(28,3,o),
(35,8,cs),
(49,19,o),
(74,47,o),
(92,75,c),
(114,127,o),
(131,236,o),
(121,320,c),
(115,324,o),
(105,321,o),
(102,315,cs),
(87,287,o),
(66,250,o),
(37,227,c),
(45,138,o),
(24,59,o),
(16,7,c)
);
}
);
width = 153;
}
);
},
{
color = 9;
export = 0;
glyphname = _cross;
lastChange = "2023-10-06 14:51:50 +0000";
layers = (
{
layerId = m01;
shapes = (
{
pos = (208,-140);
ref = u1CF35;
},
{
closed = 1;
nodes = (
(386,308,o),
(381,318,o),
(364,327,cs),
(347,337,o),
(329,346,o),
(308,361,c),
(300,371,l),
(260,390,o),
(190,456,o),
(185,439,cs),
(178,418,o),
(172,400,o),
(163,381,c),
(164,365,o),
(166,355,o),
(180,348,cs),
(203,337,o),
(222,324,o),
(246,308,c),
(252,299,l),
(292,280,o),
(359,215,o),
(364,231,cs),
(370,251,o),
(379,273,o),
(388,293,c)
);
}
);
width = 600;
},
{
associatedMasterId = m01;
layerId = "5BE46EAC-0B89-405F-80B2-C542D881F79C";
name = "6 Oct 23 at 14:55";
shapes = (
{
closed = 1;
nodes = (
(390,312,l),
(308,361,l),
(300,371,l),
(178,449,l),
(159,361,l),
(246,308,l),
(252,299,l),
(371,223,l)
);
},
{
pos = (208,-140);
ref = u1CF35;
}
);
width = 600;
},
{
associatedMasterId = m01;
layerId = "42EEB7C4-EB74-43F9-9951-23B8A0FD9AAB";
name = "6 Oct 23 at 15:02";
shapes = (
{
pos = (208,-140);
ref = u1CF35;
},
{
closed = 1;
nodes = (
(363,235,o),
(373,237,o),
(375,243,c),
(378,266,o),
(383,289,o),
(390,312,c),
(361,327,o),
(333,344,o),
(308,361,c),
(300,371,l),
(264,391,o),
(228,412,o),
(197,437,c),
(186,437,o),
(176,437,o),
(174,430,c),
(171,407,o),
(166,384,o),
(159,361,c),
(190,345,o),
(219,328,o),
(246,308,c),
(252,299,l),
(285,281,o),
(319,259,o),
(352,235,c)
);
}
);
width = 600;
}
);
},
{
color = 9;
export = 0;
glyphname = _curve;
lastChange = "2023-10-06 14:31:34 +0000";
layers = (
{
background = {
shapes = (
{
closed = 1;
nodes = (
(352,241,o),
(395,271,o),
(445,289,c),
(454,403,l),
(404,385,o),
(361,355,o),
(327,321,c),
(318,207,l)
);
}
);
};
layerId = m01;
shapes = (
{
closed = 1;
nodes = (
(450,393,o),
(445,400,o),
(438,397,cs),
(396,379,o),
(357,351,o),
(327,321,c),
(327,291,o),
(324,272,o),
(320,242,c),
(324,235,o),
(330,230,o),
(335,234,cs),
(366,261,o),
(403,285,o),
(445,300,c),
(445,333,o),
(447,356,o),
(453,389,c)
);
}
);
width = 484;
},
{
associatedMasterId = m01;
background = {
shapes = (
{
closed = 1;
nodes = (
(352,241,o),
(395,271,o),
(445,289,c),
(454,403,l),
(404,385,o),
(361,355,o),
(327,321,c),
(318,207,l)
);
}
);
};
layerId = "60303258-D170-4124-AACE-C9B1DCF0EA89";
name = "4 Oct 23 at 15:44";
shapes = (
{
closed = 1;
nodes = (
(352,241,o),
(395,271,o),
(445,289,c),
(454,403,l),
(404,385,o),
(361,355,o),
(327,321,c),
(318,207,l)
);
}
);
width = 484;
}
);
},
{
color = 0;
export = 0;
glyphname = _dotaboveclr;
lastChange = "2023-08-15 16:20:37 +0000";
layers = (
{
layerId = m01;
shapes = (
{
closed = 1;
nodes = (
(483,586,o),
(494,597,o),
(494,612,cs),
(494,626,o),
(485,634,o),
(475,634,cs),
(463,634,o),
(452,623,o),
(452,608,cs),
(452,594,o),
(461,586,o),
(471,586,cs)
);
}
);
width = 600;
}
);
},
{
color = 9;
export = 0;
glyphname = _haczek;
lastChange = "2023-12-06 16:39:25 +0000";
layers = (
{
background = {
shapes = (
{
alignment = -1;
ref = _vert.stem;
},
{
alignment = -1;
ref = _haczek;
}
);
};
layerId = m01;
shapes = (
{
closed = 1;
nodes = (
(562,413,o),
(570,411,o),
(571,419,cs),
(575,441,o),
(580,482,o),
(589,508,c),
(569,543,o),
(542,565,o),
(529,568,cs),
(520,570,o),
(498,572,o),
(483,565,cs),
(371,516,o),
(236,318,o),
(40,128,c),
(36,92,o),
(24,62,o),
(19,29,c),
(26,21,o),
(37,16,o),
(44,23,cs),
(247,211,o),
(376,403,o),
(471,457,cs),
(485,465,o),
(498,464,o),
(505,463,cs),
(521,461,o),
(539,442,o),
(554,416,c)
);
}
);
width = 600;
},
{
associatedMasterId = m01;
layerId = "F2A1EBF4-E748-4FFA-9622-8C55C2FE09C2";
name = "5 Oct 23 at 13:32";
shapes = (
{
closed = 1;
nodes = (
(314,349,o),
(448,474,o),
(500,474,cs),
(520,474,o),
(551,440,o),
(564,404,c),
(586,496,l),
(566,561,o),
(537,570,o),
(515,570,cs),
(451,570,o),
(291,428,o),
(40,143,c),
(17,2,l)
);
}
);
width = 600;
}
);
},
{
export = 0;
glyphname = _khryz;
lastChange = "2023-08-15 21:18:39 +0000";
layers = (
{
background = {
shapes = (
{
closed = 1;
nodes = (
(-215,261,o),
(-154,316,o),
(-91,368,c),
(-104,384,l),
(-165,328,o),
(-227,273,o),
(-290,221,c),
(-276,205,l)
);
},
{
closed = 1;
nodes = (
(-139,267,l),
(-166,290,o),
(-193,317,o),
(-220,350,c),
(-244,330,l),
(-218,306,o),
(-191,279,o),
(-163,247,c)
);
}
);
};
layerId = m01;
shapes = (
{
closed = 1;
nodes = (
(-243,329,l),
(-242,324,l),
(-216,300,o),
(-191,273,o),
(-164,242,c),
(-160,242,l),
(-135,265,l),
(-135,269,l),
(-162,292,o),
(-188,320,o),
(-215,351,c),
(-218,351,l)
);
},
{
closed = 1;
nodes = (
(-109,381,l),
(-170,325,o),
(-228,272,o),
(-288,227,c),
(-288,223,l),
(-276,209,l),
(-272,208,l),
(-211,264,o),
(-154,315,o),
(-95,362,c),
(-94,367,l),
(-106,380,l)
);
}
);
width = 0;
},
{
associatedMasterId = m01;
layerId = "9A84F859-6779-4C2B-837D-1BDC0C18E3C7";
name = "15 Aug 23 at 22:16";
shapes = (
{
closed = 1;
nodes = (
(-215,261,o),
(-154,316,o),
(-91,368,c),
(-104,384,l),
(-165,328,o),
(-227,273,o),
(-290,221,c),
(-276,205,l)
);
},
{
closed = 1;
nodes = (
(-139,267,l),
(-166,290,o),
(-193,317,o),
(-220,350,c),
(-244,330,l),
(-218,306,o),
(-191,279,o),
(-163,247,c)
);
}
);
width = 0;
}
);
},
{
export = 0;
glyphname = _lilcoma;
lastChange = "2023-08-15 22:49:43 +0000";
layers = (
{
background = {
shapes = (
{
closed = 1;
nodes = (
(349,-67,o),
(365,-35,o),
(379,-17,cs),
(388,-5,o),
(374,3,o),
(356,1,c),
(336,-24,o),
(317,-56,o),
(311,-77,cs),
(307,-90,o),
(324,-97,o),
(340,-97,c)
);
}
);
};
layerId = m01;
shapes = (
{
closed = 1;
nodes = (
(318,-8,o),
(318,-20,cs),
(318,-30,o),
(306,-48,o),
(297,-57,c),
(297,-61,o),
(303,-71,o),
(310,-66,cs),
(328,-56,o),
(353,-22,o),
(353,4,cs),
(353,15,o),
(344,26,o),
(336,26,cs),
(330,26,o),
(309,11,o),
(309,2,cs),
(309,-7,o)
);
}
);
width = 600;
}
);
},
{
export = 0;
glyphname = _rect;
lastChange = "2023-10-17 14:07:25 +0000";
layers = (
{
background = {
shapes = (
{
closed = 1;
nodes = (
(209,517,l),
(73,580,l),
(67,481,l),
(202,417,l)
);
}
);
};
layerId = m01;
shapes = (
{
closed = 1;
nodes = (
(192,427,o),
(204,430,o),
(203,439,cs),
(200,472,o),
(201,500,o),
(202,527,c),
(167,549,o),
(129,568,o),
(89,580,c),
(77,581,o),
(68,578,o),
(68,569,cs),
(69,536,o),
(69,518,o),
(67,481,c),
(107,471,o),
(145,453,o),
(181,428,c)
);
}
);
width = 600;
}
);
},
{
export = 0;
glyphname = _revs;
lastChange = "2023-08-15 16:20:37 +0000";
layers = (
{
layerId = m01;
shapes = (
{
closed = 1;
nodes = (
(195,-5,o),
(227,50,o),
(235,149,cs),
(236,157,o),
(229,157,o),
(221,152,c),
(212,109,o),
(195,87,o),
(166,87,cs),
(96,87,o),
(122,192,o),
(151,302,cs),
(193,461,o),
(199,551,o),
(125,551,cs),
(70,551,o),
(38,496,o),
(30,397,cs),
(29,389,o),
(36,389,o),
(44,394,c),
(53,437,o),
(70,459,o),
(99,459,cs),
(169,459,o),
(143,354,o),
(114,244,cs),
(72,85,o),
(66,-5,o),
(140,-5,cs)
);
}
);
width = 265;
}
);
},
{
color = 9;
export = 0;
glyphname = _shorthaczek;
lastChange = "2023-10-06 14:51:50 +0000";
layers = (
{
background = {
shapes = (
{
closed = 1;
nodes = (
(491,454,o),
(578,517,o),
(617,517,cs),
(637,517,o),
(668,483,o),
(681,447,c),
(706,561,l),
(686,626,o),
(660,644,o),
(638,644,cs),
(591,644,o),
(470,547,o),
(285,364,c),
(262,223,l)
);
}
);
};
layerId = m01;
shapes = (
{
closed = 1;
nodes = (
(274,267,o),
(283,262,o),
(286,265,cs),
(403,385,o),
(515,473,o),
(589,514,cs),
(603,522,o),
(616,521,o),
(623,520,cs),
(639,518,o),
(657,499,o),
(672,473,c),
(680,470,o),
(688,468,o),
(689,476,cs),
(693,498,o),
(698,539,o),
(707,565,c),
(687,600,o),
(660,622,o),
(647,625,cs),
(638,627,o),
(616,629,o),
(601,622,cs),
(513,584,o),
(420,514,o),
(281,375,c),
(283,356,o),
(278,306,o),
(272,271,c)
);
}
);
width = 736;
},
{
associatedMasterId = m01;
layerId = "AA604DCE-1F29-451D-B365-BF8AB02A9106";
name = "6 Oct 23 at 15:33";
shapes = (
{
closed = 1;
nodes = (
(491,454,o),
(578,517,o),
(617,517,cs),
(637,517,o),
(668,483,o),
(681,447,c),
(706,561,l),
(686,626,o),
(660,644,o),
(638,644,cs),
(591,644,o),
(470,547,o),
(285,364,c),
(262,223,l)
);
}
);
width = 736;
}
);
},
{
export = 0;
glyphname = _stem;
lastChange = "2023-08-15 16:20:37 +0000";
layers = (
{
guides = (
{
pos = (262,402);
},
{
pos = (262,557);
}
);
layerId = m01;
shapes = (
{
closed = 1;
nodes = (
(351,403,o),
(363,403,o),
(376,402,c),
(374,456,o),
(375,511,o),
(376,556,c),
(363,555,o),
(351,555,o),
(338,556,c),
(340,506,o),
(339,448,o),
(338,402,c)
);
}
);
width = 600;
},
{
associatedMasterId = m01;
guides = (
{
pos = (262,402);
},
{
pos = (262,557);
}
);
layerId = "CCA0647A-8FFC-4BF0-9CB4-475CDA4E03C3";
name = "18 Jul 23 at 10:52";
shapes = (
{
closed = 1;
nodes = (
(338,402,l),
(376,402,l),
(376,557,l),
(338,557,l)
);
}
);
width = 600;
}
);
},
{
color = 9;
export = 0;
glyphname = _steep.rombus;
lastChange = "2023-10-06 14:51:50 +0000";
layers = (
{
background = {
shapes = (
{
closed = 1;
nodes = (
(124,133,l),
(43,232,l),
(20,101,l),
(101,1,l)
);
}
);
};
layerId = m01;
shapes = (
{
closed = 1;
nodes = (
(36,168,o),
(28,124,o),
(26,106,c),
(48,88,o),
(67,65,o),
(93,38,cs),
(96,35,o),
(105,41,o),
(107,45,c),
(108,80,o),
(116,126,o),
(118,143,c),
(97,168,o),
(78,192,o),
(51,216,cs),
(47,220,o),
(39,213,o),
(37,209,c)
);
}
);
width = 154;
},
{
associatedMasterId = m01;
layerId = "D0AE63BF-7CF1-4D04-A266-01C67E20E3BD";
name = "6 Oct 23 at 15:26";
shapes = (
{
closed = 1;
nodes = (
(124,133,l),
(43,232,l),
(20,101,l),
(101,1,l)
);
}
);
width = 154;
}
);
},
{
color = 9;
export = 0;
glyphname = _vert.stem;
lastChange = "2023-10-06 14:51:50 +0000";
layers = (
{
layerId = m01;
shapes = (
{
closed = 1;
nodes = (
(26,21,o),
(37,16,o),
(44,23,c),
(68,233,o),
(86,362,o),
(92,491,c),
(76,494,o),
(68,491,o),
(67,481,c),
(57,321,o),
(37,162,o),
(19,29,c)
);
}
